<mxfile host="www.draw.io" modified="2019-11-19T12:20:50.950Z" agent="Mozilla/5.0 (Macintosh; Intel Mac OS X 10_15_1) AppleWebKit/537.36 (KHTML, like Gecko) Chrome/78.0.3904.97 Safari/537.36" etag="ySfRhwiw08ODIMYUNo8n" version="12.2.6" type="github" pages="1">
  <diagram id="2j0_jVbKdZ2SU6PXC-Zv" name="Page-1">
    <mxGraphModel dx="2052" dy="1037" grid="1" gridSize="10" guides="1" tooltips="1" connect="1" arrows="1" fold="1" page="1" pageScale="1" pageWidth="2339" pageHeight="3300" background="none" math="0" shadow="0">
      <root>
        <mxCell id="0"/>
        <mxCell id="1" parent="0"/>
        <mxCell id="opvP6_n-Y4_Yzn6bn5iz-1" value="" style="group" vertex="1" connectable="0" parent="1">
          <mxGeometry x="480" y="230" width="610" height="380" as="geometry"/>
        </mxCell>
        <mxCell id="WbtZ3voP-l4ZFSo2hSSj-248" value="" style="group" parent="opvP6_n-Y4_Yzn6bn5iz-1" vertex="1" connectable="0">
          <mxGeometry width="610" height="380" as="geometry"/>
        </mxCell>
        <mxCell id="WbtZ3voP-l4ZFSo2hSSj-231" value="" style="rounded=0;whiteSpace=wrap;html=1;align=center;" parent="WbtZ3voP-l4ZFSo2hSSj-248" vertex="1">
          <mxGeometry x="264.9669499527857" width="184.32483474976394" height="49.63715529753266" as="geometry"/>
        </mxCell>
        <mxCell id="WbtZ3voP-l4ZFSo2hSSj-190" value="OpenResty" style="rounded=0;whiteSpace=wrap;html=1;align=center;" parent="WbtZ3voP-l4ZFSo2hSSj-248" vertex="1">
          <mxGeometry x="129.02738432483477" y="81.6255442670537" width="470.028328611898" height="44.12191582002903" as="geometry"/>
        </mxCell>
        <mxCell id="WbtZ3voP-l4ZFSo2hSSj-191" value="&lt;span style=&quot;white-space: normal&quot;&gt;数据接入&lt;/span&gt;&lt;br style=&quot;white-space: normal&quot;&gt;&lt;span style=&quot;white-space: normal&quot;&gt;Tangula Portal&lt;/span&gt;" style="rounded=0;whiteSpace=wrap;html=1;align=center;" parent="WbtZ3voP-l4ZFSo2hSSj-248" vertex="1">
          <mxGeometry x="129.02738432483477" y="161.1480406386067" width="126.72332389046271" height="55.152394775036285" as="geometry"/>
        </mxCell>
        <mxCell id="WbtZ3voP-l4ZFSo2hSSj-224" style="edgeStyle=orthogonalEdgeStyle;rounded=0;orthogonalLoop=1;jettySize=auto;html=1;exitX=0.5;exitY=1;exitDx=0;exitDy=0;startArrow=none;startFill=0;endArrow=classic;endFill=1;strokeWidth=2;entryX=0.327;entryY=0.02;entryDx=0;entryDy=0;entryPerimeter=0;" parent="WbtZ3voP-l4ZFSo2hSSj-248" edge="1">
          <mxGeometry relative="1" as="geometry">
            <mxPoint x="418.1869688385269" y="216.19738751814222" as="sourcePoint"/>
            <mxPoint x="419.338999055713" y="253.7010159651669" as="targetPoint"/>
          </mxGeometry>
        </mxCell>
        <mxCell id="WbtZ3voP-l4ZFSo2hSSj-194" value="Kafka集群" style="rounded=0;whiteSpace=wrap;html=1;align=center;" parent="WbtZ3voP-l4ZFSo2hSSj-248" vertex="1">
          <mxGeometry x="313.3522190745987" y="162.1480406386067" width="173.95656279508972" height="54.049346879535555" as="geometry"/>
        </mxCell>
        <mxCell id="WbtZ3voP-l4ZFSo2hSSj-195" value="" style="rounded=1;whiteSpace=wrap;html=1;align=center;" parent="WbtZ3voP-l4ZFSo2hSSj-248" vertex="1">
          <mxGeometry x="129.02738432483477" y="247.08272859216254" width="193.54107648725213" height="132.36574746008708" as="geometry"/>
        </mxCell>
        <mxCell id="WbtZ3voP-l4ZFSo2hSSj-198" value="&lt;span style=&quot;text-align: right ; white-space: normal&quot;&gt;ElasticSearch&lt;/span&gt;" style="shape=cylinder;whiteSpace=wrap;html=1;boundedLbl=1;backgroundOutline=1;align=center;" parent="WbtZ3voP-l4ZFSo2hSSj-248" vertex="1">
          <mxGeometry x="146.30783758262513" y="263.62844702467345" width="92.16241737488197" height="44.12191582002903" as="geometry"/>
        </mxCell>
        <mxCell id="WbtZ3voP-l4ZFSo2hSSj-200" value="&lt;span style=&quot;text-align: right&quot;&gt;MongoDB&lt;/span&gt;" style="shape=cylinder;whiteSpace=wrap;html=1;boundedLbl=1;backgroundOutline=1;align=center;" parent="WbtZ3voP-l4ZFSo2hSSj-248" vertex="1">
          <mxGeometry x="218.88574126534468" y="307.75036284470247" width="92.16241737488197" height="44.12191582002903" as="geometry"/>
        </mxCell>
        <mxCell id="WbtZ3voP-l4ZFSo2hSSj-225" style="edgeStyle=orthogonalEdgeStyle;rounded=0;orthogonalLoop=1;jettySize=auto;html=1;exitX=0;exitY=0.5;exitDx=0;exitDy=0;entryX=1;entryY=0.25;entryDx=0;entryDy=0;startArrow=none;startFill=0;endArrow=classic;endFill=1;strokeWidth=2;" parent="WbtZ3voP-l4ZFSo2hSSj-248" source="WbtZ3voP-l4ZFSo2hSSj-201" target="WbtZ3voP-l4ZFSo2hSSj-195" edge="1">
          <mxGeometry relative="1" as="geometry"/>
        </mxCell>
        <mxCell id="WbtZ3voP-l4ZFSo2hSSj-201" value="数据处理&lt;br&gt;Tangula Kepi" style="rounded=0;whiteSpace=wrap;html=1;align=center;" parent="WbtZ3voP-l4ZFSo2hSSj-248" vertex="1">
          <mxGeometry x="360.5854579792257" y="252.5979680696662" width="126.72332389046271" height="55.152394775036285" as="geometry"/>
        </mxCell>
        <mxCell id="WbtZ3voP-l4ZFSo2hSSj-227" style="edgeStyle=orthogonalEdgeStyle;rounded=0;orthogonalLoop=1;jettySize=auto;html=1;exitX=0;exitY=0.5;exitDx=0;exitDy=0;entryX=1;entryY=0.75;entryDx=0;entryDy=0;startArrow=classic;startFill=1;endArrow=classic;endFill=1;strokeWidth=2;" parent="WbtZ3voP-l4ZFSo2hSSj-248" source="WbtZ3voP-l4ZFSo2hSSj-202" target="WbtZ3voP-l4ZFSo2hSSj-195" edge="1">
          <mxGeometry relative="1" as="geometry"/>
        </mxCell>
        <mxCell id="WbtZ3voP-l4ZFSo2hSSj-202" value="数据聚合&lt;br&gt;Tangula Api" style="rounded=0;whiteSpace=wrap;html=1;align=center;" parent="WbtZ3voP-l4ZFSo2hSSj-248" vertex="1">
          <mxGeometry x="360.5854579792257" y="318.22931785195937" width="126.72332389046271" height="55.152394775036285" as="geometry"/>
        </mxCell>
        <mxCell id="WbtZ3voP-l4ZFSo2hSSj-222" style="edgeStyle=orthogonalEdgeStyle;rounded=0;orthogonalLoop=1;jettySize=auto;html=1;exitX=1;exitY=0.5;exitDx=0;exitDy=0;startArrow=none;startFill=0;endArrow=classic;endFill=1;strokeWidth=2;" parent="WbtZ3voP-l4ZFSo2hSSj-248" source="WbtZ3voP-l4ZFSo2hSSj-191" target="WbtZ3voP-l4ZFSo2hSSj-194" edge="1">
          <mxGeometry relative="1" as="geometry"/>
        </mxCell>
        <mxCell id="WbtZ3voP-l4ZFSo2hSSj-203" value="" style="rounded=0;whiteSpace=wrap;html=1;align=center;" parent="WbtZ3voP-l4ZFSo2hSSj-248" vertex="1">
          <mxGeometry x="529.9338999055714" y="161.04499274310595" width="69.12181303116148" height="218.4034833091437" as="geometry"/>
        </mxCell>
        <mxCell id="WbtZ3voP-l4ZFSo2hSSj-215" value="" style="shape=image;html=1;verticalAlign=top;verticalLabelPosition=bottom;labelBackgroundColor=#ffffff;imageAspect=0;aspect=fixed;image=https://cdn4.iconfinder.com/data/icons/logos-brands-5/24/kibana-128.png" parent="WbtZ3voP-l4ZFSo2hSSj-248" vertex="1">
          <mxGeometry x="548.3663833805477" y="243.22206095791" width="34.1944847605225" height="34.1944847605225" as="geometry"/>
        </mxCell>
        <mxCell id="WbtZ3voP-l4ZFSo2hSSj-216" value="" style="shape=image;html=1;verticalAlign=top;verticalLabelPosition=bottom;labelBackgroundColor=#ffffff;imageAspect=0;aspect=fixed;image=https://cdn4.iconfinder.com/data/icons/logos-brands-5/24/grafana-128.png" parent="WbtZ3voP-l4ZFSo2hSSj-248" vertex="1">
          <mxGeometry x="541.4542020774315" y="178.69375907111757" width="40.81277213352685" height="40.81277213352685" as="geometry"/>
        </mxCell>
        <mxCell id="WbtZ3voP-l4ZFSo2hSSj-175" value="" style="pointerEvents=1;shadow=0;dashed=0;html=1;strokeColor=none;labelPosition=center;verticalLabelPosition=bottom;verticalAlign=top;align=center;fillColor=#515151;shape=mxgraph.mscae.system_center.admin_console;aspect=fixed;" parent="WbtZ3voP-l4ZFSo2hSSj-248" vertex="1">
          <mxGeometry x="544.3342776203966" y="296.16835994194486" width="44.12191582002903" height="31.767779390420902" as="geometry"/>
        </mxCell>
        <mxCell id="WbtZ3voP-l4ZFSo2hSSj-221" value="数据流" style="edgeStyle=orthogonalEdgeStyle;rounded=0;orthogonalLoop=1;jettySize=auto;html=1;startArrow=none;startFill=0;endArrow=classic;endFill=1;strokeWidth=2;" parent="WbtZ3voP-l4ZFSo2hSSj-248" edge="1">
          <mxGeometry relative="1" as="geometry">
            <mxPoint x="92.16241737488197" y="323.1930333817126" as="targetPoint"/>
            <mxPoint y="323.1930333817126" as="sourcePoint"/>
          </mxGeometry>
        </mxCell>
        <mxCell id="WbtZ3voP-l4ZFSo2hSSj-228" value="请求流" style="edgeStyle=orthogonalEdgeStyle;rounded=0;orthogonalLoop=1;jettySize=auto;html=1;startArrow=none;startFill=0;endArrow=classic;endFill=1;strokeWidth=2;dashed=1;fillColor=#f8cecc;strokeColor=#b85450;" parent="WbtZ3voP-l4ZFSo2hSSj-248" edge="1">
          <mxGeometry relative="1" as="geometry">
            <mxPoint x="92.16241737488197" y="349.66618287373007" as="targetPoint"/>
            <mxPoint y="349.66618287373007" as="sourcePoint"/>
          </mxGeometry>
        </mxCell>
        <mxCell id="WbtZ3voP-l4ZFSo2hSSj-230" value="" style="edgeStyle=orthogonalEdgeStyle;rounded=0;orthogonalLoop=1;jettySize=auto;html=1;startArrow=none;startFill=0;endArrow=classic;endFill=1;strokeWidth=2;dashed=1;fillColor=#f8cecc;strokeColor=#b85450;" parent="WbtZ3voP-l4ZFSo2hSSj-248" edge="1">
          <mxGeometry relative="1" as="geometry">
            <mxPoint x="357.12936732766764" y="81.6255442670537" as="targetPoint"/>
            <mxPoint x="357.12936732766764" y="49.63715529753266" as="sourcePoint"/>
          </mxGeometry>
        </mxCell>
        <mxCell id="WbtZ3voP-l4ZFSo2hSSj-183" value="" style="pointerEvents=1;shadow=0;dashed=0;html=1;strokeColor=none;fillColor=#505050;labelPosition=center;verticalLabelPosition=bottom;verticalAlign=top;outlineConnect=0;align=center;shape=mxgraph.office.devices.cell_phone_iphone_standalone;aspect=fixed;" parent="WbtZ3voP-l4ZFSo2hSSj-248" vertex="1">
          <mxGeometry x="298.95184135977337" y="6.066763425253991" width="23.164005805515238" height="38.9155297532656" as="geometry"/>
        </mxCell>
        <mxCell id="WbtZ3voP-l4ZFSo2hSSj-184" value="" style="shape=image;html=1;verticalAlign=top;verticalLabelPosition=bottom;labelBackgroundColor=#ffffff;imageAspect=0;aspect=fixed;image=https://cdn0.iconfinder.com/data/icons/iphone-7-airpods-icons/24/apple-tv-box-128.png" parent="WbtZ3voP-l4ZFSo2hSSj-248" vertex="1">
          <mxGeometry x="345.6090651558074" y="4.412191582002903" width="40.81277213352685" height="40.81277213352685" as="geometry"/>
        </mxCell>
        <mxCell id="WbtZ3voP-l4ZFSo2hSSj-235" value="数据存储" style="text;html=1;strokeColor=none;fillColor=none;align=center;verticalAlign=middle;whiteSpace=wrap;rounded=0;" parent="WbtZ3voP-l4ZFSo2hSSj-248" vertex="1">
          <mxGeometry x="138.24362606232296" y="345.80551523947753" width="80.64211520302172" height="22.060957910014515" as="geometry"/>
        </mxCell>
        <mxCell id="WbtZ3voP-l4ZFSo2hSSj-236" value="终端" style="text;html=1;strokeColor=none;fillColor=none;align=center;verticalAlign=middle;whiteSpace=wrap;rounded=0;" parent="WbtZ3voP-l4ZFSo2hSSj-248" vertex="1">
          <mxGeometry x="400.33050047214357" y="13.788098693759071" width="46.081208687440984" height="22.060957910014515" as="geometry"/>
        </mxCell>
        <mxCell id="WbtZ3voP-l4ZFSo2hSSj-237" value="展示流" style="edgeStyle=orthogonalEdgeStyle;rounded=0;orthogonalLoop=1;jettySize=auto;html=1;startArrow=none;startFill=0;endArrow=classic;endFill=1;strokeWidth=2;dashed=1;fillColor=#d5e8d4;strokeColor=#82b366;" parent="WbtZ3voP-l4ZFSo2hSSj-248" edge="1">
          <mxGeometry relative="1" as="geometry">
            <mxPoint x="92.16241737488197" y="376.13933236574746" as="targetPoint"/>
            <mxPoint y="376.13933236574746" as="sourcePoint"/>
          </mxGeometry>
        </mxCell>
        <mxCell id="WbtZ3voP-l4ZFSo2hSSj-241" style="edgeStyle=orthogonalEdgeStyle;rounded=0;orthogonalLoop=1;jettySize=auto;html=1;exitX=1;exitY=0.5;exitDx=0;exitDy=0;entryX=-0.02;entryY=0.848;entryDx=0;entryDy=0;entryPerimeter=0;dashed=1;startArrow=none;startFill=0;endArrow=classic;endFill=1;strokeWidth=2;fillColor=#d5e8d4;strokeColor=#82b366;" parent="WbtZ3voP-l4ZFSo2hSSj-248" edge="1">
          <mxGeometry relative="1" as="geometry">
            <mxPoint x="488.46081208687445" y="287.89550072568943" as="sourcePoint"/>
            <mxPoint x="529.9338999055714" y="287.89550072568943" as="targetPoint"/>
          </mxGeometry>
        </mxCell>
        <mxCell id="WbtZ3voP-l4ZFSo2hSSj-242" value="" style="shape=image;html=1;verticalAlign=top;verticalLabelPosition=bottom;labelBackgroundColor=#ffffff;imageAspect=0;aspect=fixed;image=https://cdn4.iconfinder.com/data/icons/logos-brands-5/24/nginx-128.png" parent="WbtZ3voP-l4ZFSo2hSSj-248" vertex="1">
          <mxGeometry x="146.30783758262513" y="87.14078374455733" width="33.09143686502177" height="33.09143686502177" as="geometry"/>
        </mxCell>
        <mxCell id="WbtZ3voP-l4ZFSo2hSSj-245" value="检索&amp;amp;展示" style="text;html=1;strokeColor=none;fillColor=none;align=center;verticalAlign=middle;whiteSpace=wrap;rounded=0;" parent="WbtZ3voP-l4ZFSo2hSSj-248" vertex="1">
          <mxGeometry x="517.8375826251181" y="335.878084179971" width="92.16241737488197" height="44.12191582002903" as="geometry"/>
        </mxCell>
        <mxCell id="WbtZ3voP-l4ZFSo2hSSj-240" style="edgeStyle=orthogonalEdgeStyle;rounded=0;orthogonalLoop=1;jettySize=auto;html=1;exitX=1;exitY=0.5;exitDx=0;exitDy=0;entryX=-0.02;entryY=0.848;entryDx=0;entryDy=0;entryPerimeter=0;dashed=1;startArrow=none;startFill=0;endArrow=classic;endFill=1;strokeWidth=2;fillColor=#d5e8d4;strokeColor=#82b366;" parent="WbtZ3voP-l4ZFSo2hSSj-248" source="WbtZ3voP-l4ZFSo2hSSj-202" target="WbtZ3voP-l4ZFSo2hSSj-203" edge="1">
          <mxGeometry relative="1" as="geometry"/>
        </mxCell>
        <mxCell id="WbtZ3voP-l4ZFSo2hSSj-246" value="" style="edgeStyle=orthogonalEdgeStyle;rounded=0;orthogonalLoop=1;jettySize=auto;html=1;startArrow=none;startFill=0;endArrow=classic;endFill=1;strokeWidth=2;dashed=1;fillColor=#f8cecc;strokeColor=#b85450;exitX=0.132;exitY=1.05;exitDx=0;exitDy=0;exitPerimeter=0;entryX=0.5;entryY=0;entryDx=0;entryDy=0;" parent="WbtZ3voP-l4ZFSo2hSSj-248" source="WbtZ3voP-l4ZFSo2hSSj-190" target="WbtZ3voP-l4ZFSo2hSSj-191" edge="1">
          <mxGeometry relative="1" as="geometry">
            <mxPoint x="368.6496694995279" y="92.65602322206095" as="targetPoint"/>
            <mxPoint x="368.6496694995279" y="60.66763425253991" as="sourcePoint"/>
          </mxGeometry>
        </mxCell>
        <mxCell id="WbtZ3voP-l4ZFSo2hSSj-247" value="" style="shape=image;verticalLabelPosition=bottom;verticalAlign=top;imageAspect=0;aspect=fixed;image=data:image/png,iVBORw0KGgoAAAANSUhEUgAABLAAAAecCAQAAAAArqSUAAAABGdBTUEAALGPC/xhBQAAACBjSFJNAAB6JgAAgIQAAPoAAACA6AAAdTAAAOpgAAA6mAAAF3CculE8AAAAAmJLR0QA/4ePzL8AAIAASURBVHja7N13nBTl4cfxz9F7lWIFLKggRVFUwIKggIANsYNdE2NsSX4mxp7EEo01GlvsDbBXwIIKKIooRbChYEWlS6/3+yOEgNzB3e7M7JTP+16/osLe7veZ3f3OMzPPFCGFrTZb0IgG1KM+dalHPWpRj0rUoRrVqUVlAKpQc+3fmLvm/y5iOfNZyXyWs4i5zFv7M4sZzGSZ4UqS4qjICBSoKmzJVjRja7ZiaxqxBY2pFtpvm8cPzOR7vuVrvuEbvuUHh0CSZMFS8tVk+zU/27E9WxV4m1rGl0xd8/MF01nlAEmSLFhKhlrsTGta0ZqdaR7jrWgZH/MxH/EJH/ElKx04SZIFS3FTlzZ0oAMd2IkKiXv2K/iccYxjHB+w2MGUJFmwVEg16MCe7EVHtk7JK1rJZN5lDO/yCasdYEmSBUvR2Yr96MxetKFSal/jfN5jDCN5m0UOuCTJgqXwbEFnutOFVhl6zasYz2hG8Rpz3AAkSRYsBacWXenDgbTIcAarGM+rvMpbLHeDkCRZsJS7iuxNTw6kAxUNY40FjGA4LzHNKCRJFiyVT00OoA+H0NQoSvElL/A8b7LCKCRJFixtylYczqHsu+YmNdq4WbzM0wxliVFIkixYKkkzDqM/nRz5clvCawzhGX42CkmSBUv/tQ3HcjS7GkReljKcx3jOpUolSRasrKtPXwbQzdEOzBJe4CGGem6WJMmClUVVOISB9KCKUYTgJwZxPx8YhCTJgpUdrRjIyTQ2iJBN4UHu4yeDkCRZsNKtHgM42bOtIrSc5/k3w7yzoSTJgpVOu3Emx1PTIArgO+7hdueyJEkWrDSpyiGcQXeDKKjlPMtdvEaxUUiSBUtJ14hTOJfNDSImxvMvHnJhUkmyYCm5tuMcTqOGQcTMT9zHrXxnEJIkJc2+PMsqiv2J6c9S7qWVm6kkSUlRgb68bYVJwM9qnqeTG6wkSXFXizP41OqSqJ9R9PWAvCRJcVWXS5htYUnkz4ccbsmSpGzw4z5JanMWF1LfIBLsI67jEVYZhCRZsBQH9TiPc6lnECkwiSt50pWyJEkqrCqcwY8eYkvVzyT6u2FLklQolTmD7ywkqfwZzb5u4JIkRa2Io/ncIpLqn2ddJ0uS0vkVrrjqyD/oYgypt5J7uZiZBiFJaVLRCGJpG27lFpoZRAZUoAOnAWO9tlCS0sMZrPipxyWcTRWDyJjJnM8rxiBJFiyFMR4D+DtNDCKjXuVcphiDJFmwFKTduNW71mXcCv7Fpcw3CEmyYCkIm3EVp1LBIMRP/Jl7WW0QkmTBUn76cxuNjEFrvc3pHiyUpORyxqTwtuBpBluvtJ5OjOcaqhqEJCWTM1iFzv90rqe2QahEH3E6Y4xBkixYKo8duIv9jUEbsZp7+D0LDEKSksVDhIVSmQuZZL3SJt+hZ/AxhxqEJCWLM1iFsTd309oYVGZD+I2305GkJO0fK2rVuIlR1iuVS38m088YJCkpnMGKWisepZ0xKCcPcRYLjUGS4s8ZrGjr7BmMtV4pZwOYRGdjkKT4q2gEkWnMIC6gskEoD/UYSEVGUmwUkhRnHiKMSg/up6kxKBBjOIEvjEGS4stDhFGozs28bL1SYPbiA04wBkmKL2ewwrcLj9LGGBS4IZzJXGOQpDhyBivsAnsB46xXCkV/xrGHMUhSHHmSe5hq8RAXmLFCU5+B/MQ4g5AkC1Z27MArdDUGhaoSfdmOoaw0CkmKE8/BCksfHqKeMSgSH9CP6cYgSfHhOVjh1NYLedZ6pcjsxvscaAySFB8eIgxeA57mV84NKlI1OI4KvGkQkhQP1oCgtedJtjUGFcRzDGS+MUhS4XmIMFjHM9p6pYI5hPdobQySZMFKkyIu52FqGIQKqCXv0MsYJKnQPAcrKFV5kLONQTHYEo9mJu8bhCRZsJKvIS/S2xgUCxXoQwOGU2wUkmTBSrLteJ3djEExsieteN7lRyWpULyKMH978yyNjEGx8zaHMssYJKkQPMk9X0fymvVKsdSJd2hpDJJkwUqecxlEdWNQTG3P23QxBkmyYCVJJf7FTSaoWGvIqxxjDJIUNU9yz1UVBjHAGJSAHYF+zOY9g5AkC1b81eBZ+hiDEqGIXizgHYOQJAtWvNXiebobgxJUsXpQnVcNQpIsWPFVn+GeOKzE6UINK5YkWbDiqgmv0cEYlECdacrLru8uSRas+NmaEbQyBiXU7mzPc6w2CEmyYMVJc15nB2NQgrVlJ561YklS2LxVTtntxKtsaQxKvBfpzxJjkCQLVhzswuveEkcpMZxDWWoMkmTBKrTteYvNjUGpMYxDWWYMkhQWz8Eqi60ZwdbGoFTtMrTiKc/FkiQLVuE04XW2NwalzM404zkXbZAkC1ZhbMYIdjYGpVB7NuMlY5AkC1b06vIK7YxBKdWRegwzBkmyYEWrBi+xlzEoxfZiFW8ZgyRZsKJTnRfZzxiUcgewmLeNQZIsWNGozBP0MAZlQHd+YJwxSJIFK3xFPMIRxqCMbO0HM5mPDUKSglPBCEp0FUcbgjL0OfAwnYxBkoLcd9WGTuUeQ1DGzKITnxuDJFmwwtKDF6hkDMqcL9ibmcYgSRasMLRmNHWNQZk0kgO9Q6EkBcGT3Ne3BW/Q2BiUUc1oyZPGIEkWrGDV5lV2NAZlWGsqMsIYJMmCFWQWg1xYVJm3Lz/yvjFIkgUrKLcywBAkevAuXxiDJOXDk9z/6wL+YQgSAPPZ24VHJcmClb+uDHdpBmmtz+jIfGOQpFy5kjvA1gyyXknraMmD7n5JUu48Bwuq8jItjUFaz44sZZQxSJIFK1d30NcQpA0cwHtMNQZJyoUHAQbwoJuBVKI57M40Y5AkC1Z57cpoqrsZSKUYTyeWGIMklVe2DxE24DUauRFIpWrKNjxtDJJkwSrPa3+K3d0EpI1qxw+MMwZJKp8sL9NwNT3cAKRNupXOhiBJ5ZPdc7B68LKn+Etl8i1tmWsMklR2WT1E2Ihh1Hb4pTKpw3YMMQZJsmBtXBGP0cHBl8qsFV8w0RgkqexVI4vO5laHXiqXhezG58YgSRas0vfF33ftK6ncxtKZFcYgSWWRvUOEVXmZrR14qdy2ZBVvGoMklUX2lmm4ivYOu5STi+lkCJJUFlk7RNidYZle+0vKzzTa87MxSNKmZOsQYX2GUs9Bl/J4D23JM8YgSRasdT3Kng65lJd2fMpHxiBJG5elQ4Qn8JADLuVtDq340RgkaWOyM4PVkOeo6YBLeavO1jxhDJJkwQK4m70dbikQuzCeT41BkkqXlUOEPXnZwZYC8z2tmWcMklSabMxg1eQF6jvYUmBqU4eXjEGSSpONNaGuYluHWgrUr+hiCJJUmiwcItyT0Rm8JZAUtk9pz1JjkKSSpL94VOElmjjQUuA2YzVvGIMklST9hwj/RGuHWQrFRd7ZU5JKlvZDhDsynmoOsxSS9+jEKmOQpF9K9yHCIp5iOwdZCs2W/MhYY5CkDStImh3DYw6xFKq57MBsY5Ck9aV5Bqs6z1DPIZZCfp9VY6gxSNL60nyS+x9o5gBLoTuLXQxBktaX3kOEW/KpN3eWIvEa3Q1BktaV3hmsv1uvpIh0o7chSNK60jqDtRdvZ+ZG1lLhTWUXlhmDJP1XOk9yL+JJtnJwpcg0YC7vGIMk/a+KpNFAHnBoE2IFs1nMIpYD8ygGoCo1gFpUph4NjCgh5tGSmcYgSektWLX4lC0c2hhazXdMZxrTmM5PzGYWM/l5E3+nIg1pSEM2Yyua05wWNLd0xdRdnGkIkpTegvVX/uzAxkYx05jAJCYyieksD+Qx69CSdrShLW1paMSxsYoOTDAGSUpnwdqCqVR3YAvuJ95hFO8wkQWh/p4t2Y0udGJ37zkZA8PoaQiSlM6C9S9+5bAW0PcM4y3e5rOIf29VOtCZruxvvS6orrxhCJKUvoK1A5Op7LAWwCrG8wLP88GaE9ULpTqd6U53OjgkBfEeexV4C5AkC1YIHuMYBzViS3mJwQxlfqye1fYczlHs7vBE7lCeMwRJSlfBasuHqb67Ytws4xWG8MwmrwQsnGYcRn86O1QR+oh2rDYGSRasNHnBG3ZEZhx383jMZq1KsxOncCKNHbSIHM+jhiDJgpUeu/G+t8eJwM88zl2MS9izrkIPBnBESu9dEC+fszOrjEGSBSstnqePAxqyydzEYyxK7PPfljM5k7oOZMiO4zFDkGTBSgfnr8I2mmt5IQVXiNXiVM6nmQMaoo/ZxfOwJCkdnqXYn5B+VvAwu6Zqa6nEsYxzZEP88WpeSc5gOX+ljVjNo1zB1FRu+325knYOcSim0MY5LElZlpZFDS60XoWgmBfYjQGprFdQzHPsyiGMd6BD0IpDDEGSkq45KzwoE/jPixmZ3anACUxzvAP/GekHkyRnsJLuPCo5lIH6jL70ZkImXutqHmZHzgv5ptTZ04W9DUFSdqVhVaD6PEQVhzIwc7mCgXycqde8ind5gNrs6qHmANVliCFIUnJd6OGYwH5WcwcNM7wt7cn7bgWB/axkOz+eJDmDlVSVeYQ6DmQgvqA/t7Ikwwl8x73MoYszooGoQAVeNgZJSqaTnCkIaK2ra6jm5gRAC4a7RQTys4jN3JwkOYOVREU8SBOHMW/v05tHWGkQAMzjYb5iPwtn3iqzgLeMQVIWJf2U3p4egshbMbfyB5YbxC9szUPsZwx5+olmLDUGSdmT9Bmsf7Gtg5iXrzmMO1hlEBv4mQeYywGpuNK2cGryFR8Yg6TsSfYMVhsmeFl9Xp7gTOYYw0bsziO0NIY8fEorb5ojKXuSvdDoudarPCzlVPpbrzbhfTrwuDHkYUcONARJ2ZPkwx/1uI/KDmGOvuFgXjCGMljOk8ygp4cKc1aLQYYgKWuSPIN1EjUcwBy9we68ZwxldhfdmGEMOerLNoYgyYKVFEWc6fDlpJhr6M5PBlEuI9mDMcaQk4qcYgiSsia55zB141WHLwfLOY2HjCEnVbmX44whBzNoxgpjkJStfcuk+jutHL5ym8shPGsMOVrF01Sji0GUW23GZ+z24ZIsWAl93g25k0oOXzlNpxtjjSEvr/INB3vCew4V61FDkJQlST0HawBVHbxyep+9nEUIwL0cwkJjKKcebGkIkixY8XeSQ1dOo+jGj8YQiKF0ZbYxlEtFBhiCpCxJ5knuHXjfoSuXN+jrrEugdmUYjYyhHD5jJ4qNQVJWJHMG62QHrlxepJf1KmAfsi/fGUM5tKSTIUiyYMVZVY514MphEIez1BgC9wn785UxuGMkSWkpWAfTwIErs2c4wRWIQjKVbnxvDGXWn+qGIMmCFV8u9Vh2r3AMK40hNF/Q1UsHyqwOvQxBkgUrvh/SvR22MhrN4SwzhlB9Rg/mGEMZeXBfkgUrto7wMEMZvUsvFhlD6CbQmwXGUCZ9qGsIkixY8eQBwrL5hF5+7UdkDP09EFsm1TjCECRZsOKoCQc4aGXwE72ZawyRGcZZhlAmxxiBJAtWHB3uXeDKYAmH8aUxROpurjGEMjiAzQxBkgUrfvo5ZJu0mhN4xxgidxEPG8ImVaKvIUiyYMVNA/ZzyDbpQp4yhAIo5nTeNgZ3kiQpeQXrUCo7ZJvwONcbQoEspZ8Lj27SQdQ3BEkWLPd9k+UTzjCEAvqBI1luDBtV2ZXsJGVBkk4Zr80dVHLINmI+BzDDGArqWxbQ0xg2qohBhiAp7ZI0g3UQVR2wjSjmFD43hoK7mQcMYRPv5GqGIMmCFR8eWNi46zy5PSZ+w6eGsBE1vVhFkgUrTs/0YIdrIz7gEkOIiUUc55lY7ixJsmAlw540cbhKtZjj/UqPVd291BA24hAjkGTBios+DtZGXMAnhhAr1/G6IZSqGbsYgiQLVjx4gLB0z3GnIcTMak5kjjH4fpZkwYq3JrRzsEoxx7WvYulbzjeEUh1oBJIsWHHQnSIHqxS/40dDiKUHGWYIpehCDUOQZMFyfze+RrjqUoydyUJDKFE1uhiCJAtW4XVzqEq0mNMpNobY+sqrCd1pkmTBiq/WbOVQlegSvjCEWLuZdwyhRAcZgSQLVqF1d6BK9BG3GELMrea3rDaGErRxZTtJFqxC88YaJfsdKw0h9sZxvyGUoIh9DEGSBauwH8SdHagSPMNwQ0iEPzHfENxxkmTBipvWNHagNrCc/zOEhPiJqw2hBPsagSQLlh/DcXMjnxuCo5VobWhoCJIsWBasOJnjnEiiLOdiQ9hAkWthSbJgFZKnwm7oOs/qSZgnmGgI7jxJsmDFR3O2cJh+YRa3GULCrOYyQ9jAXkYgyYJVKHs6SBu4igWGkDjP8J4h/EIHqhqCJAuWBSseZnCnISTSFUbwC1VpZwiSLFgWrHi4msWGkEgv8a4h/IIHCSVZsAqiMrs6SOuZw72GkFjXGYEFS5IFKw7aUd1BWs+/WGQIifUMUw1hPc5QS7JgFcTuDtF6lnn9YKKt4iZDWE8LGhiCJAtW9DxAuL6HmWEIiXYfswxhHUWe5i7JglUI7R2idRRzoyEk3GL+ZQjuREmyYBVWJdo6ROt4g8mGkHj/YqUhWLAkWbAKqRXVHKJ13G0EKTCDlw3BgiXJglVI7R2gdczmaUOwKKfOjl4pLMmCFbU2DtA6HmSpIaTCS3xjCGtVYidDkGTBilYrB2gd/zaClFjFA4awjtZGIMmCZcEqlLc9wT1F7qXYECxYkixYhVGLZg7QWo8ZQYpM866E7khJsmAVys4UOUBrrOYpQ0iVQUawljNYkixYfuwWyFt8bwgpK1irDWGNFtQwBEkWrOjs6PCsNdgIUmYGow1h7afQDoYgyYIVne0dnjVWeYDQ0pxqvtclWbD80C2AUfxoCKnztFcS+l6XZMEqhO0cnjW8tUoafcckQ/C9LsmCFbWm1HZ4LFiOayY4gyXJguVHbuRmONORUkONwHe7JAtW1LZ1cNZ42XN1Umo0PxsCAFtSzRAkWbCi4Sru/ytYSqcVvGYIaz6HtjIESRasaGzt4ABQzBuGkFqvG4Hvd0kWLD9wC+ETZhlCarnY6H9tYwSSLFgWLL+CFYyJzDcEC5YkC5YFy4KlIK3iPUPw/S7JghWdOtRxcAB42wgs0BYsSbJgBWNzhwaAmXxuCKk2ygh8x0uyYEWniUMDwFjXwEq59x1h3/GSLFh+3EZtohGk3Hy+MQSgUazviypJFqyU8SY5luhsqEhDQ5BkwbJg+eUrxzhYjY1AkgXLghWN5XxmCKnnLKXveUkWrMhs5tAAn7DcEFLPGaz/aGQEkixY4avv0ACfGEEGfM4qQ/A9L8mCFY16Dg0wzQgyYAXfG4LveUkWLD9sozPdCBznzKhrBJIsWBYsv3gVHGcqwUOEkixYkTwr70ToF6/jnC3uVEmyYIWutqs6A8V8bQgWLAuWJFmwglLTgQFms8QQMuFbI/BdL8mCFYUaDgww0wgyU6UF1Y1AkgXLguXXroIzywh810uyYLkv69euHGkLliQlsGD5UevXbpYsZZEhuFslyYJlwYqGhwgd6yzxXS/JghW6qg4MMM8IMmOuEVDNCCRZsMJW0YEBlhpBZiwzAt/1kixY4avkwADLjcCClSFFLi8syYLlvqwFSxYsd6wkyYLll64s0zHn+16SBcsPWr90ZZkOmDNYkixYFqwIrDACC5YFS5IsWMFZ5cDEdmxktQjLSiOQ5Jd4uDw4Bq4G5lhnje97SRaskHlwDKCKETjWmeL7XpIFyz1Zv3QVIGewYCWrDUGSBcs9Wb905Vi7WyVJiSpYftSCM1iOdba4WyXJgmXBikQtI3CsM8R3vSQLlvuykdjMCDKjkRFYsCRZsCxY0WhoBBlRkXqG4LtekgXLfdloOIOVFfVdVNZ3vSQLlh+1UXEGy5HOEmewJFmwQrfIgcEZLEc6W3zXS7JghW6uAwM0osgQMqGxEfiul2TBisICb/sKVKOpIWRCCyOwYEmyYEWhmPkODdDcCBznzJhjBJIsWO7NRsOZDcc5O3zPS7Jg+WHrF68cZ9/zkmTBSqbmRpAJzYzA97wkC5YfttHZzggyoKl3IgRgnhFIsmBZsKLRxggc5czwJHdJFiz3ZiOyGZsbQuq1NQJ3qiRZsPyw9ctXwXIGy/e8JAtWZH5yaCxYFqxM8RChJAtWBL51aPzyzYRKtDIEYB4LDUGSBcuCFZX2RpByO1LNEHzHS7JgReUbhwaA1tQ1hFTrZAQAfG0EkixYUVjkdYRrxmcvQ0i1zkYAOIMlyYLlB65fwApQFyPw/S7JghWl7xwcC1bqNXG1/jU8KUCSBcs92kjtSSVDSC3nr3y/S7Jg+YFbEDXZzRAsWBYsSbJgBcNDhP/VwwhSq6cRWLAkWbD8wPVLWEFqzk6GAMBclxmVZMGKypcOzhp70sAQrM6p5inukixYERasFQ4PABU50BBSqZcRrPGJEUiyYEVlhXNYfhGnWhW6GoIFS5IFyw/dQhasioaQOvtT2xDW+MwIJFmwovOpw7NGY/Y3hNQ52gjcmZJkwbJg+WWsIFXmMENYo9j3uiQLlgWrMI6kiiGkykFeG7rWty7SIMmCFaWPHZ616nOAIaSKc5L/4wFCSRasSM1hlgO01lFGkCJVOcQQ1nKuWpIFyw/egjmSWoaQGodR1xDWcgZLkgXLD96Cqe0cVoqcZgTuSEmyYBXOBAdoHacbQUps6xl165liBJIsWNEa5wCtYy/aGUIqnBbz9120fuB7Q5BkwYrWeFY5ROs4xQhSoBInGsI6xhqBJAtW1BZ7FtZ6BlDDEBKvL1sYwjo+MAJJFiw/fAurPicZQuJdYATred8IJFmwoudZWOv7nbd9Trg96GIIvsclWbD88I2XbTnUEBLtQiNYz3fMMARJFqzoeZq7X9Bp0sJbPP+CBwglWbAKYiGfOUjr6cjehpBYHuL9JeeoJVmwCsTT3H/pz0aQUJtzsiFYsCRZsOLBVXJ+qbdzWAl1kctsWLAkWbDiYpSDtIErjSCBtvFmRxuYzo+GIMmCVRjjme8w/UJ39jeExLmYqobwC28agSQLVqGs4m2HaQN/NYKEae4NcixYkixYfgjHXWcONoRE+QtVDMH3tqTsKErAc9zbOawSfEJbVhhDQuzF24l4r0XrW7Y2BElplYQZrPdZ5EBtYCd+YwiJ2Y25yXpVgjeMQJIFq5BWMMaBKsFlbGYIiTCAPQ2hBB4glGTBKrC3HKgS1HO5hkSo4SUJFixJFiw/iJPkDNobQuxd7JlGJfqezw1BkgWrsMaw1KEqQUXuo5IxxFobfm8I7jZJsmDF0zJGO1Qlas+5hhDrCnwPlY3BgiXJghVXLzlUpbiS7Qwhts6hoyGUYrgRSEqzpFw8vhMfO1ilGEE3io0hhprxEbWMoUST2cUQJKVZUmawPuFLB6sUXTnFEGK583KX9apUzklLsmD5gRx7N9PSEGLnXA4yhFK9YASS0r6XnRS9rFgb8T6dvHFOrLRmLNWNoRRzacxKY5CUZsmZwRrBYoerVLtziSHESDUetV5txDDrlSQLVlwsZYTDtRF/Zn9DiI3raGsIG/GiEUiyYMWHhwg3PpIPeG/CmDjUG3Fv1CqGGoIkC1Z8eFrsxm3D41Q0hoLbgQcSdG5jIbzLLEOQZMGKj6+Z5IBtVDf+YggFVounqWsMG+VctCQLVswMccA24Y8cbggFdQ+tDWETnjMCSemXrEMZO/KJQ7YJP9ORT42hQC7gH4awCR/TyhAkpV+yZrA+ZYJDtgl1eInGxlAQvbjWEDbpcSOQZMGKn8EO2SZty5NUM4bI7cpgKhnDJnmgX5IFy73fhOrCg4kb2aTbkue882AZjPe27ZIsWHH0JR84aGXQn78aQoRq8yJbGUMZDDICSdmQvHWT6tPdYSuDffiJ940hElV5lk7GUCa/Yq4hSMqC5B1IGkyxw1Ymt3GqIUSyk/KQpb+MxvKFIUiyYMXTNOdlyqiIOznaGEJ/Bz1If2MoIw8QSrJgxZgnupdVRR7kYGMIucQeZwxlVOwVhJKy9AWRPE34hsoOXRktoS+vGUNI754bOdcYymw0XQxBUlYkcQbrR1504MqsOi9ymDGEUq9usl6Vy71GIMmC5Qd1elRlEEcaQ8Aq8m/OMYZyWOgBQkkWrLh7me8dunKowuOcbAwmWlCPssAQJGVpPzyJVtPIsznKWaT7MtPrLwNSg6c41BjK6Sy+MwRJ2VGU0Ofdkk8S+9wL5xbOZ7Ux5GkznqGzMZTTJNoagqQsSeod6z5jlINXbucwmOrGkJftedt6lYN7jECSBSsZ7nPwctCP12lkDDnrzDvsYAzltpSHDUGSBSsZBnvKbE72YhQtjSEnJ/I6mxlDDp5ijiFIsmAlwyIec/hy0pL3PEW73KpwK/dTxSBy4gFCSZmT5BPFd2GiJ7rnqJiruIxVBlFGWzCETsaQo6m09BbtkrKmQoKf+0feAiaPYv1nXqWxQZRJF963XuXhVuuVJAtWstzsAOZhf97zergyvEMuZASbG0TO5ntBiiQLVtK8yKcOYR6a8SbXeOPsjWjKi1xDJYPIwz1ejiIpi5J+DtM5zmLl7R1O4EtjKMGR3EkDY8jLKrZnujEoZerThM2ot/anDvWoTC2qU43aVAIqUXu9v7GMxQDMZyXzWcZiFrGAeWt/ZvETMz0v1oIVJ7X5ljoOY55+5lzuN4b11OEGTjWGvD3pjcaVcDVoxlZsxTZsTVOa0JRGVA3lNxXzEzP5kR/4lm/5im/4llkOgAWrcG7kPIcxAMP4lTMNa/XldrYyhgDs4z0XlDiN2X7Nz3ZsR8OCPpclTGPqmp8v+Mo5LgtWlJozNaG3rI6bxVzJ9b59acJ1DHBzCMQ4djcEJUJ9WtOK1rSiDU1i+yxX8A1TmMwUJvMRyxw2C1bYnnHZzMC8y+lMyvT74SSu97yrwBzPo4ag2KpAS3ZlV3Zj1wS+65fxER/wIR8ycc35XbJgBW4f3nIgA7OSO7gsozc22YObXO8qQN/RghXGoNjZmr3Yiz1pR61UvJ5VfMJYxjCGjzwGYcEK2hvs51AGaA6XcicrM/WaN+cqBiZ82ZK4+SPXGoJiozK7sw97sSdbpPY1LuJ9xjCKUcxzwC1YwTiQ4Q5lwCZzPq9k5LVW4zwu+sVF1cq/pjd3BSzF4v3dkf3Yl72pmZnXvJqJvMlbjGSmG4AFK19j2NPBDNzrXMrolL/GKpzKRV4xGIJL+KshqKDfbu05kAPpQrXMZlDMJF5hOCNZ4gZhwcpVH553MEMxlEsZm9LXVomBXEJzBzkE82jOfGNQQTShFwfRzbutrrWUUbzCUCYahQUrl9fxAe0dzpD2gZ7nr6krWZU5lovZweENyRVcbgiKXHv60JfdPZuyFF/xAs/zJkuNwoJVHkcyxOEM0Zv8gxdZnYrXUpczOMfDgiGaTwvmGoMiU4muHE4ftjaKMljEcJ7l+YxeLW7ByumVTGQXBzRUU/kndyX8WH5TfsU51HcwQ/VXLjEERaIq+9CXo2O8OGhcrWIMQxjMDKOwYG3a8TzsgIZuJg9wD58m8JlXoAen04fKDmLIFtCC2cagkFWmB8fSx7vR5lmzRjKYwb5jLVgbV5GPPacmEsWM5G6eSNBx/K05hVPYxqGLxDX8yRAU6vdWF46jf4HvEpgmKxjGYzzLIqOwYJXmGB5zSCMzl8EM4q2Yrxxcj8M4mgO9X2VkFtHCtXcUmh05keNoZhChvHef4QFeS8m5thaswF/NWDo4qJH6gScYzOgYviVrcwhHcxBVHaRIXc1FhqAQ1KE/J9PZIEL2NQ9wP18ahAXrl7pnZvXxePmOFxnKqzFZubsFPenFgRleXrBwZrG9618pcPtyKv0ytBJ7oRXzJvcx2OUcLFjrG86BDmuBrGAUQxnKRwWaz6pBF3rRix0dioI5j5sNQQGqwwB+TWuDKIA53MedfG4QFqz/ascHLjJXYAt4l9GMYnRESzo0oSOd6cLuHg4ssGnszDJjUEB25lecQi2DKKjR3MwzrDAICxbAoxzrwMbCCj5gAhOZxMQQ7u3enDa0oR27sb1Rx8SxPG4ICkAFevN79jWImPiG27jbhUktWLAdU6ji0MbM10zmc6YzjelMy+ksnSI2pwUtaE4LWtKGuoYaM+/TkWJjUJ6qMZALPNAfO4t5kJv5xCCyXbDgVs52aGNtLj8yi9nMZjYzmQ/MZzUrWAgUUQ+oRnUqshkN1/w0YgsPAMbcAYwwBOVlM87iN96kObaKGcb1vGYQWS5YjZjq6r5SpF6kjyEoD9tyLqdRwyBibzw38kjMV0CMhXQuv7iYIro5uFJkVnEkPxmDctSBa7mLvb2RVSI05XBOoIiJrDSMjSlK6euqwiRaOrxSRP7NaYagnBzEpS4fmkjfcy13R3StuAUrVg5kuMMrRWIuOzl/pRx04S/sbwwJ9hM3cCuLDaIk6V0x6hWedXilSFxsvVK5HcwYRlqvEq4x1/AF53vuXEmKUvzatuFjB10K3Qd09IRXlcteXG21SpWZ/IObXGZ4fRVT/NrmU5X9HGIpVKs5kq+NQWXWmtu4geYGkSo16c4AFjPetfD+pyjVr646U3wbS6G6h9MNQWW0LX/hGG9mlmLj+RNDjSELBQuO4EkHWQrNHHZipjGoDOpzIedSzSBS71XO5yNjSPchQoCP2cs71UmhOZ+3DEGbVJnTeIoeVDKKDNiWM9iKMV5bWJT6V7gDE6juFi+FYCx7sdoYtAmH8Xd2MIaMmcWl3JXty18qpv4VzmEZB7mtS4FbxRF8ZwzaqJ14lItoaBCZU4PeHM5nTMtuBFk42fAG3nFblwJ3I2MNQRtRk8sZz4EGkVlteJXn2S6rL78oI4P8PlXc1qUAfUZ7b5KhjXy3HMff2cIgxDJu4m8syN4Lr5iJV/kTlVzUTgrQao7gC2NQKVrwOH+gtkEIqEQXTmQan2RvLyMbqjCOXdzOpYDcxPmGoBJV4DT+QS2D0C8M4exs3VSrKDOvtCNvZ2S+TgrbNNqy0BhUgjbcQ0djUInm8kfuzs5a79mpHN9Rh05u31Leijkqe5P9KoNqXMxDbGMQKkV1+rI/o5mTjZdblKGhrcEEFx2V8nY7vzEEbWBf7mJHY9AmLeISbsnCCllFmRrWPRhNZbduKQ9f0SaL1wNpo+pyJWd7j0GV2XhOY1zaX2S2zkr6nopeTSjlYTX9PTyoX+jFUA7M2O668tOUk6nEqHTfCSJrb4lKvOmZWFLOrucPhqB1VONy/uDclXIyluP53IKVHi0YTx23aykHH7A3y41Ba7XmEdoZg3K2mIu4Oa0vLnsLF8zjew53q5bKbRE9srWKjTaxe34GT7K1QSgPlelJW15L510hsjix+yCPuVVL5fYbPjUErdGY57mTGgahvB3BR/RI5z5IFtVlAs3cqqVyGMJRhqA1enA/TY1BgSnmVv6QthMQsnrdRxfecF13qcy+oR1zjUFAda7ht14zqMCN4/h0zZJntWR8TSX2c3uWymQlvdN8rY/KoS2v0tt6pRBswcnMYLwFK/neZC/XdZfK5FIeNQQBx/IsWxiDQlKFQ9mOoaxMx8vJ8n5II8Z5BYy0Sa/QKwu3tdAmVOZ6zjEGhe49juQbC1bSdeQtqro1SxvxNR2YZQyZ14jHOcAYFIlZHMcryX8Z2T7R+zvm0NttWSrVUnoy1RgyrzOv0dYYFJEaHMcy3rZgJdtYWtDerVkqxa940RAy7wwGUc8YFKEKdGdXXmZZkl+E14JUZzS7ujVLJbiDXxtCxlXjNk4xBhXEp/RjsgUrybbnfeoag/QL77JfsvcflbeteZI9jEEFs4BTeCKpT97FNmEOn3KUVVNaz090d2nRjOvCGy5mo4KqSn9WMtKClVyfsJquxiCttZJDmGgMmXYkT1HHGFRgRRxAc15itQUrqUayndfISGv9jscNIdP+yB1UNgbFQnv24rnknbDggbH/qsJwb54jAXAPpxtChlXkVi9vUMxMpjdfWbCSqiHvsp0xKPOG0Sctt6pQDmrxuOsDKoZm0JdxFqyk2pm3Xe1FGTeFTsw3hszaghdcuEYxtYhjeT45T9dzsNY1i/EcQwWDUIb3EbvykzFkVhtGsKMxKKaqcBRzeM+ClUxfMJ9exqCMWkIvphhDZh3EUBobg2KsAgfTgOEUW7CS6F0au7CeMmkVR/GaMWTW8QyhujEo9vZkB55LwrINFqwNDaUVrY1BmfM7HjCEzDqdf/t9oIRow248Hf9LcTzJvSRVeYkDjEGZcivnGEJmnccNfhsoUYZxBIstWElUmxF0MAZlxqMMSOJKyQrEhVxjCEqckfThZwtWEm3GSHYyBmXCcPqy3Bgy6gouNQQl0jh6MsuClURbM5qtjUGp9w4HssgYMqmIGzjPGJRYUziQ7y1YSdSat2hgDEq1CXRlrjFkUkXu5FRjUKJ9yoF8Y8FKoj15jZrGoNT6nH340RgyWq/uZaAxKPG+ojtTLVhJdDBPU8UYlEpf0yWu+34KWWUGc5gxKBW+oyufx+9peVuYTXmJw1hmDEqhmfSwXmVURR6wXik1tuR1mluwkuhljvIKK6XOHA7iE2PIpCLu5lhjUIpsxStsbsFKouc43FkspcpcejDeGDLqek42BKXM9oygiQUriV7iWFYYg1JiJvvzvjFk1NVcYAhKoR0ZRn0LVhI9zTFWLKXCT3RjojFk1KX80RCUUu14iVrxeTpeRVgeR/A4lY1BifYj3fnIGDLqHG42BKXa6/RmaTyeindPL4+P+YTDnfVTgn3PAUwxhow6k3+6U62Ua0F7nojHnVV9s5VXHwZT3RiUSD/QzXqVWSfwgLuHyoSnOJqVhX8azmCV12eM4giqGoQS5xv251NjyOyu4WN+3isjdmZznrdgJdFXDOdwb6CjhPmEA5hmDBm1Gy9QzRiUGR1YzqhCPwkPEeZmW15hW2NQYoylNzONIaO2ZAxbGYMypZiBPGzBSqbNGUYbY1AivMbhLDCGjKrDSNoagzJnOT0ZUcgn4CmPuZrB/owxBiXAI/SyXmVWZZ6wXimTqvAEO1qwkmkO3XnFGBRztzDQJXIzPf4HGoIyqgEv0diClUyL6MtDxqDYKuYKzo3HijAqiEv4lSEow7blBWoU6pd7FWF+VvEMS+jmuWyK5dZ5JjcYQ4Yd7cKiyrwt2ZEnKbZgJdNoptDHW+goZhZwJIOMIcP24SkqGYMyrxXVedWClVRTeJNDCjcNKW3gc7ryjjFk2A68Sm1jkIDOfM8H0f9ap4+Dsi0vsLMxKBZG0s9VrzKtJmPYxRikNVbQldFR/1JPcg/Kl3TmdWNQDNxNN+tVxt1uvZLWUZkhbG7BSq659OJeY1BBreS3nOGyDBl3PgMNQVrP5jwa9TmJnoMVpFU8xwx6mKoKZAFHFfrmECq4zjzsZ5C0gebUZHiUv9BzsILXiSFsYQyK3OccwifGkHFbMo4mxiCVoJhjGBzdr/MQYfDepj2vGYMi9hx7Wq8yrzKPW6+kUhRxb5RnJ1qwwjCTnlxbmIXNlEkruYLDmGsQmXcrXQxBKlVNnqJudH1OYTmGe6hpDArdTxzrFawCBvCgIUib8DyHRXMDMU+FDM9HPEU3GhmEQvUmBzLJGER7nvGOEtIm7cgKRlqwkm4WD7MtrQ1CISnmKk7mZ4MQtRlBY2OQymA/3uCr8H+NhwjDN5DbqGUMCtx8TuZpYxAAD7j2lVRm39KOOWH/Ek9yD9+DdGCcMShgo2hnvdIaR1uvpHLYitvD/yUeIozCbO6lmH2dL1RAVvIXTvGqQa39sniB6sYglcMuTGNCuL/Cr/zodONBFyBVAL5kAG8bg9aowCscYAxSOS1kNz4P962pqLxGO543BuXpIdpar7SOC61XUg5q8Ui41916iDBKi3mcmexHFaNQTn7kGP7urZy1jt2986CUoy0p5o3wHt5DhNFrzt10NwaV2zBOZoYxaB01GceOxiDlaDUH8GZYD+4hwuhN5yB+zQKDUDnM53R6Wq/0Czdar6S8OtD94d06x6nlwnifB2jpR6PK6AX6hDmRrYQ6jL8bgpSXemwV1oI3HiIspP7cQQNj0Eb9yP95hzmVoCFTXLtdCsAR4VQsDxEW0hBa84wxqFTFPERr65VKdKP1SgrEbdQP42E9RFhYCxnEVPamtlFoA1Ppz40sMQiVoAfXGYIUiNo0CGMRJQtW4U3iDlbQybHQOlbyT/rzmUGoRDV4MZx9bimTdmMU04J+UM/Biou2/JN9jEEAjOQcxhuDSnUj5xmCFKDPaMfSYB/SWZO4+JH7mMK+1DKKjPuO33I+PxiEStWRuzx/VgpUQyrwerAP6QxWvNTlSs6ikkFk1HLu4GLXSNNGVWIs7Y1BCthK9uSDIB/QvaB4mc+57M5Ig8ikp9iJc61X2oQ/Wa+kUHZd7gz2qJ6HCOPnR+5jNLvSxCgy5FMG8jfmGYQ2YUcecY5bCsUW/Mw7wT2chwjj26VP5XKaGkQGzOQv/IuVBqFNqsBbdDYGKSSLacOXQT2YM1hxtZpx3MlydqeKYaTYAq7hGEay2ihUBqdzliFIoanMjjxiwcqC5bzJ3RTT0XFK6fj+m368wHKjUJnU42lqGoMUou15n8+DeShPco+7WfyRdjxNsVGkyiruZQfOdDkGlcMlNDIEKWQ3BHXcyJmRZJSsQTxFLXaxEKfEq/TjbuYbhMq1Z/2An9hS6BoyL5hT3T3JPUnacAn9LFkJ9zKXMdYYVG4v0NsQpAjMoyUz838Yv6yTZBJH0YaHWGUUibSaF+jIwdYr5aC79UqKSD3+GsTDOIOVRNtyIae4Fk6irOBxruITg1BOKvEhuxiDFNnucEfG5fsgzmAl0ZecSWvuCfrGlArJYm5hOwZar5Szs6xXUoQqcH3+D+IMVpI14tec5YrvsTaP27g5iKP5yrCGfE59Y0iI5SxgPrCMxcBCagGVqQXUoLbLbCTIkTxpwcq2qhzHebQ1iBiaym3cy88GoTz9k98YQiwtYzrTmcZ0vmM2s5nJrE3cTbQaDWlIQxrRlGa0oDnNLc8xNY1W+R0nsmClQzfO52BHMzZWM5xbGer67ArALnzoGZcxspjJTGASk/iUGYGsUFiPbWlLG9rSlsYGHCN/5ioLlgB25DyOp7ZBFNh87ue2oFYCllyeIRZWMYlRvMP7fBHqddxNaE8nOrMntQy94BawLbMsWPqPWhzDaexpEAXyMf/kQRYahALThZGGUEAreZsRjGbMJg79Ba0SbenCPnSnnoNQQDfwOwuW1tWW0zjB4/qRWsoz/JvXvKWRAjaSLoZQEN8xlKG8UuA7LlRib3rSi/Z+Wxfok70l31iwtL5qHMlp7OsIR2AMD/A48wxCgevNC4YQuY8ZzNNMiNVzakpfjqKrN0uK3D2cbsFSSVpyKseytUGEto/7EA+4vpVCUoEPaGcMEfqcQQxmUmyfXyP6cTT7uoJlhFayC59asFTah3RnjuFIr04J1FKe5gFe9bZFCtExPGYIEZnPw9zLB4l4rptzAqfR0kGLyCCOsWBpYypxAMdwuCdM5m0Zr/Akz3hIUKHvGn3EzsYQgbe5m8EsTtRzLmI/TqMf1Ry+0K2mLZMtWNqUqvTkGA6hhlHkYAlDeZLnXTpUkXD+KnyLuZ/bc/vyjIUGnMg5NHcgQ5bjHJYFK4tqchC96U1ToyijhbzEE7zEIqNQRCowkdbGEKIf+Sf/YnbiX0cl+vE79nBAQ7SaNkyxYKk8Y787fejDrm4FG/EDw3iGYSwxCkXqKAYZQmimcAMPsyxFr2hffk8fP8tD8zjHWrBUflvSmz5087DhepbzNsMYygRXtlIBVGACuxhDKD7lcgan8jZW7bmSvg5wKFazCx9bsJSb6uzL/uzP7pm/69mXDGMYr7keuwqoL88ZQijv7it5ONXX/nbkSno40CG4j1MsWMpPbfZhf/Znt8wtaPcDo3iTYd5FUDHwJvsaQsC+5wruY0UGXmkXrnb9/8AtowUzLFgKQl32oSt9Ur/WSjGfMJpRjGaqg66Y2IP3DCFQS7mBqzM0K13EUfydbRz4QF3NRRYsBedX/Culr2wlExjNKN5gpsOsmBnEUYYQoBc4ly8z96qrcw5/prbDH5i5bOOpIwqyYBWn9OcaB1cx1ZwVqX3fRf8zif0zvC1txWNuAwH+nFu++L2jkSTFyfmZv9AkKCu4lt15I8MJfMuxHMxXbgoBOa98700LliTFR/3yX6ukEr1De/6YqrWucvMyrbjWu6YGojn9LFiSlExnUssQ8raQ39Ill7W3U2kxf2Qf0wjE7yxYkpRElfmNIeRtLB34ZyqXEs3dO3TgWjPJ2x7sZ8GSpOQ5nq0MIS+ruYUufGYQG1jKH+lZ3pWctIFyzGFZsCQpLs4zgrx8TVfOZblBlOIV2vG8MeSlD60sWJKULN1oZwh5eJa2vGUMGzWTQ7mAlQaRsyLOtmBJUrKcZQQ5K+ZajmC+QZQhqRs5wEOFeRhAHQuWJCXH5vQ1hBzNphd/9BTuMhvJ7rxtDDmqxbEWLElKjjOobAg5+ZDdGWYM5fI9XVN7I7Tw/dqCJUlJUYnTDCEnQ9mP6cZQbss5izM8Gysn7djbgiVJydDXBRpycgt9WGAMObqbI1hkDDko0xyWBUuSCs/5q/Ir5grO9SYweXmeTnxrDOV2JPUsWJIUf1twkCGU0xKO4HJjyNtEbyqUg+ocbcGSpPgbSCVDKJdF9OUZYwjEV3ThXWMop5MtWJIUfycaQbnM40BeM4bAzKUHo42hXPakjQVLkuKtEzsZQjnM4SDeMYZAzecgXjGGchlowZKkeDvZCMphBvsw1hgCt5hDeNEYymHApg7sW7AkqZCqcIQhlNlMuntKdkiWcgQvGUOZNaG7BUuS4qsPDQyhjObTy3oVouUcyRvGUGbHWrAkKb6OM4IyWkQfxhlDqJZwKO8ZQxkdTg0LliTFUx0ONoQyfvX3YZQxhO5nevCBMZRJ7Y3foN2CJUmF04/qhlAGqzjag1cRmUdvvjKGMjnWgiVJ8XSMEZTJuTxvCJH5gYOZZwxl0Iv6FixJip+GHGAIZXADtxlCpKZwGMuMYZOqcIgFS5Li51BvkVMGL/B/hhC5NzmZYmPYpH4WLEmKH1fA2rSxHM0qYyiAx/irIWzSgdS2YElSvNSmmyFswmyOYrExFMhlPG0Im1CNPhYsSYqXQ6hmCBu1iuOYbgwFU8wpTDWGTehnwZKkeDncCDbhTww3hIKaRz9nEDehV2lLrViwJKkQqnKQIWzUM1xvCAU3kdMMYaNqlHao34IlSYWwX+knxwqYykCvYouFx7jDEDaqjwVLkuKjrxFsxEoGsMAYYuJ8JhnCRt/LRRYsSYqL3kawEVcwxhBiYynHsdQYSrUF7S1YkhQPu9DCEEo1mqsNIVY+4lJD2Ig+FixJigfnr0o3nxNcWjR2/sFrhlCqgy1YkhQPBxpBqX7n2lcxtJqTPSuuVHuUdNNnC5YkRa06nQ2hFG9wryHE0jdcZAilqEhXC5YkFd5+ruFeiiWc7uIMsXU7owyhFAdasCQplh/GAuBSb80SY6s5zasJS9HTgiVJFqy4msDNhhBrn3KtIZSoOdtZsCSpsJqyiyGUYDWns8IYYu5q5xhL0d2CJUmFtW/J6z5n3oOMNYTYW8bvDaFE+1mwJKnQBUsbWsifDSERnmW4IZRgfwuWJMVsT1fAVXxvCAlxPisNYQOb//IsLAuWJEWpAa0MYQPTuNEQEmMKdxnCpnedLFiSFKV9/dwtwUVe/p8ol7mquwVLkuJWsPRLkxhsCIkyi1sMYQP7WLAkqXD2NoINXMZqQ0iY65lrCL/Qgi0sWJJUGFXY1RB+4QOeMYTEmcdNhrCBjhYsSSqMXalqCL9wiXcfTKQbmGkIv7CXBUuSYrCHK+BdXjKERFrolZ8WLEmKC8/A+qXrjCCxbmO+IaxnDypZsCSpEJzBWt+Xnn+VYD9znyGsp8a69xm1YElSVOqxrSGs50ZWGUKC/cPbc/9CBwuWJEVvN2/zvJ453G8IifYtTxjCena1YElS9NobwXruYKEhJNw/jKC097gFS5KispsRrGM1dxpC4o1jjCGsV7AqWLAkyYJVSC/xtSGkwN1GsI6a7GDBkqRo1aClIazjHiNIhUH8bAjr2NWCJUnRakVFQ1hrhguMpsQiHjOEdexiwZKkaLU2gnX82wv8U8ODhCW+zy1YkhSNnY1grWLuNYTUGMd4Q1irlQVLkgq0ZyvGMM0QUsSDhP+zHdUtWJJkwSqMwUaQKo9TbAhrVPzvxSwWLEmKQg2aGcIaxTxlCKnyNe8ZwlqtLFiSFJ2Wft6uNdoVsFLHOcn/2dmCJUnR2cEI1hpkBCksWKsNYY3tLFiSFPmHrijmaUNInW8Zawjr70xZsCQpCtsbwRoT+c4QUmioEaz/XrdgSZIFyy9i5etlI1ijPg0sWJJkwfKLWEEYy0+GsO673YIlSeGrzhaGAMDPvG0IqbSaVw1hje0sWJIUja0pMgQAXvUehKnlwd//2saCJUnR2MoI1njdCFLrNSNYu0NlwZKk6PZoBYwygtT63jtMrvt+t2BJkgUrKj/zkSGk2GgjsGBJUpS2NgIAxrDKECxY2Xi/W7AkKXyeg/UfXkFowcqCBtS0YElSFFyk4T88AyvdPmKOIQCwuQVLkqLQxAiAYsYZQspH+END+O873oIlSWGrQENDAL5mniGk3EQjsGBJUlQ2o5Ih+OWbCZOMAIDGFixJimRvVhYsxzhb73kLliRZsKLh7Eb6TWalIViwJCkamxmBBSsjljLVEIBGFixJCl89IwBW8bkhZMAnRvCf97wFS5LC1sAIgG9ZYQgZMN0ILFiSFI26RgDeCNhxzpD6FixJimRvVs5sOM7Zes9bsCTJguUXr4LiDNZ/3vNFFixJCpuHCC1YFqxsqUgtC5Ykha2WEQDfGEEmLPSGSADUtGBJUthqGAEwywgc6QypbsGSpNA/ao3Ar11HOmu7VRYsSQr9o9YIgNlG4EhbsCRJFqwgLWCZIWSEM1gWLEmyYEXEWQ3HOls8B0uSQlfVCJhrBI51plSzYElS2CoaAUuNwLHOlEoWLEmyXoVvuRE41tl631uwJCnkPVkjAE9xd6yz9r63YElSyHuyRoCzGhaszL3vLViSZMGyYMmxDpYzWJJkwfJLVwFyBgucwZKk0K02AsBvG3cpsqXYTV6SwrXCCHAtMMc6a1ZasCTJghW+KkbgWGfKKguWJIW8J0uxIfilmyHOYIEzWJIUxb6sEfil61hn7V1vwZKksHmQ0BksxzprnMGSpNC5RAHUMoLMqGkEFixJiuSj1gjYzAgyo5ERAIstWJJkwQpfA4oMISMaGoEFS5KisMQIqEQ9Q7BgZeldb8GSpLD9bAR+7WaIh4PBGSxJisB8I/Br15G2YEmSLFjBa2wEmVDBuUrAQ4SSFAEPEQI0M4JM2NyFRv/zrrdgSZIFKwrNjSATWhgBsIjlFixJCpuHCP3idZyzZS5YsCQpbM5ggTNYjnOWzLNgSZIFKxrbGkEmOINlwZKkiMw1AqAuDQzBIp0R8y1YkhS+H40AgDZGkAG7GAEwx4IlSeH7wQgAaGsEqbelq2D99z1vwZIkC1Y0nMGyRGfFTxYsSQrfbFYYgl++jnGG/GjBkqTwFfOTIQC7+J2Tes5SWrAkKUIeJASoyfaGkHLOYP3HTAuWJFmworO3EaRaXVobAuAMliRZsCLV2QhSrZOtAoAVFixJsmBZsBRcwRLAd6yyYElSFKYbAQA7u5p7qnUxAgC+BguWJEVhmhEAUORZWClWmY6GYMGSpCh9aQRr7GMEqbUbNQwBgG8tWJIUjW9canSNHkaQWj2NYA1nsCQpIiv5xhAAaMfmhmB5TrnpFixJiopnYf1HkfMcKdXAM7DWmmrBkiQLVtQsWOnUg4qGAMAqvrJgSZIFK2oHUskQLM4pNp3lFixJisoXRrBGfZcbTaGKFqxfvtctWMqmThxPe6oYhCLzsRGsdZQRpM7+NDaENab+5/84UauSNKA97WiX4hVr9mEfYCWf8xGTmMwE5xcUsk9Z6SfuGv04h1XGkCpHG8Fan//n/xSZhNZqyh7sQXvasU0GX/08PuADPmAcU1ntxqAQfMKOhrBGd14zhBSpzAwaGsMaPRgOzmAJatOBjnRkj0zWqv+pxwEcAMDPjOdd3uZdZrh5KEBTLFhrHWXBSpVu1qv13umAM1hZthX70Il92MVLa0s1nXcYwxg+dBVuBeAvXGwIa8xic1YaQ2rcx0mGsMZ86lmwsqoV+9OJfTI+X1U+i3iHN3mT91hmGMrZsTxqCGsdynOGkBI1+Z46xrDGO3T6z//jIcLsaMEBdOUAb1OR08dHd7oDSxjDm7zJOxYt5WCyEazjdAtWahxlvSrpfe4MVvo1oDsHcQAtjCIwi3iL4bziF6bKpSoL3aldaxXN+dYYUuFt9jaEtc7nJgtW2lVkd3rSkz08xyo03/MKrzCcmUahMvmYnQxhrUv5iyGkwC5MMoR1HMAIC1Z6NaAXfTjQqzoi2xN/j+d5kYlGoU14hOMMYa2v2NYlUVLgJs41hLWKachcC1Yabcch9GUfD0MUxNe8yPOMYKlRqBTncaMhrONgXjaEhKvOtzQwhrWm/+90HAtWWnSgH4fQ2iAKbiEv8RQvscAotIEujDSEdbzCQYaQcL/iX4awjqc5woKVHq3pz7G0NIhYWcooXuAxfjIKraMG851fXs+ujDeEBKvAZM8rXM8l/NWClXxF7El/+tHMKGJrBSN4jKeZbxRaYyJtDGEdDzHQEBLsMJ42hPUcwvMWrGTbiWM4jh0MIhGW8QpDeIqFRiHu5WRDWG8nZDu+MYbEGv3fRTW1RlN+/O//W8E0EmZLLmAcH3OZ9SoxqtKHB/ieB+nlkhmZ974RrKcyZxtCYu1tvfqFaf+rV85gJUl1juAkDrAUJ9oMHuF+FyjNsI68awjr+ZltmW0MifQCvQ1hPY+tuxCLX9bJsBd3MoOH6e6IJdzm/J6PGMvZrlKWURO8zdIv1OH3hpDQ7yXr1S+NWfcfnMGKuyacyEnsbBCps4wXuJtXXGgxc95iH0NYzyK2W/fAihJiOAcawi/syXv/+wfnQ+KsAw/yNddar1KpKv0Yytdcw9aGkSmuhPVLNbnQEBKni/VqA0vXX3TEGax4qsdRnOOyoRmxihHcxVOsMopM6Onq5SV8Me3gjZ8TZgT7G8IGO0/7rvuPzmDFz548zA/cab3KjIp0ZzCf8jvqGUYGjGalIfxCNS42hITtJlivNvTW+v/oDFacVOFQzqWzQWR4P34I13ln+tQby+6G8Aur6MAEY0iISnzILsawgYN4Zd1/dAYrLhpzIV8w2HqV8f34AUxkFP29nUqW9nMFVPQ22AlylvWqBCvXv4bQGax42IXfcSxVDUJrTeMm/s0ig0glby9Ssn48ZQgJ0JDPaGAMG3iXvdb/F85gFVoXnmciJ1mvtJ4W3Mz33MyWRpFCb7k4R4muo5ohJMAV1qsSvfnLf2HBKpyKHM1YRtLHeUSVqA7n8AV3e6/61JnDR4ZQgm25wBBirw1nGkKJRliw4qEqZ/IZj3uqqza5pZzGZJ6ho1GkyjAjKNHFtDSEmE8M3O0ZoiVatuG5lRasQnxlnsFU7mBbo1CZVOBQ3mUUfY3CgpVy1bnLGf1Y+y17GkKJRrHYglVYtTmXadzJVkahcurMc4yir18/qTCShYZQov04zRBiaxv+YgileKWkfWNFpQ6X8TU3sblRKI+S9a4zWSmwnDcMoRR/ZwtDiKk7qWUIFqy4qcVFTONyV+pW3vbgOd7lIINIOA8SlqYetxtCLA2kpyGUYub6dyG0YEWlBr/nS/7mha0KTEeGMdJbVViwUupQDxPGUAtuMYRSDS9p6RULVriq8Fu+4DoaGYUC1oURvEong0ioz/nSEEp1k1cTxkwlHqKuMZTqxZL+pQUrPBU4nk+4haZGoZB0YzTP0sogEul1IyhVTR6hsjHEyJ+9jdtGrGSoBStK3Xmfh2lhEArZIUxiMM0NIlGKOJcBxrARu3OFIcTGHvzZEDZiFHMtWFHpyAheYVeDUCQq0J8pXO0lFImxNa9xk7fH2oQL6W4IsdCAQc4nbtSLpe1HKeiPzms41lxVALP5G7ex3CBi7hj+ZRkuk1l04GtjKPgO3Av0MoaNasXHJUen4NTiL3zKcdYrFURDbmCSq2TFWj0e4THrVRltxpPe/rngLrNebcJnJdcrC1ZwiujPZC6mulGogFryHK/R1iBiqRPjOM4YymF37jKEgurDxYawCU+U9h8sWEF9cI5lMNsYhGLgAD7gXy4NEjNV+DsjvQNpuQ3gdEMomO15yJawSU+V9h88mJW/plzDQJNUzMzjMm5npUHEQmsepr0x5GQ5PbyxUEHUZzQ7G8MmTCt9t8lump9KnMsnnGi9UuzU42bep4tBFFwRZ/Ce9SpnVXiGXYwhcpUZYr0qgydK/08WrHwcwARucnVbxVY73uJ+GhtEAW3BMO6khkHkoS7P0cQYIt4t+DfdjKEMnrJgBa8xD/Gaa2gr9h+TJ/IpZ1PRKAriSCZyoDHkrQXPWVIjdbkL4ZbJV7xrwQr6S+t0PuEEg1Ai1ONW3mM3g4hYHe5nCA0NIhAdeZRKxhCRU7nEEMrkMYo3VhVUXi35FwcYgxJmJbfzZxYaRET24iG2N4ZAPcExrDKG0B3BIMtsGbVlUun/0Rms8qnGVXxkvVICVeIcJtHTICJQmb8xynoVuCO53UmB0PXlcetVGU3aWL3CMzPKpRMvcriZKbHqcQK78xYLjCJEO/ESR7vzGooONOBlYwjRATzjXTLL7GZGWbCCUIvr+ZfXYynxWnIi3218v0s5K+IsnqCZQYRmTyrzujGEpAsvejFBmRVzOvM2/nGgstiXe9jBGJQaL3EG3xlDwBpzj/eCjMB1XLixU4uVo/14ntrGUGZv0HXjf8Bp7E2rwz28Yb1SqhzMRI43hkAdykfWq0j8gX/63RW4Pgy1XpXL/Zv6A85gbUpn7vdkVaWU81hBqc41nGMMEXqUE70RVICO4mEqG0M5LGTzTV2V7V7Axj80b+Qt65VS62AmcpQx5G0vJlqvInYcj1LFGAJyMo9ar8pp0KYXvbFglW4PPuA8E1KqNWAQg6lvEDmrxIXuhhVEf0awmTEE4Fz+7QVv5Xbvpv+IhwhLVpGLudi1QJQRX3EibxpDDnbgIfY0hoL5mN5MM4Y8VOFOTjKGcvukLDfCdn6mJFvxOpdbr5QZzRjBza5+U24D+cB6VVA7M5bOxpCz2jxrvcrJXWX5Q85gbegQ7vX+YcqgCRzHFGMoo8bczSHGEAOLGcBTxpCDFjxPa2PIwRK2Ys6m/5gzWOurys08Y71SJrVjHOcaQ5kcxIfWq5iowRNc4zlE5daVMdarHA0uS71yBmt9O/I47Y1BmfYUpzHXGDaiOtfwWz87Y+YNjuYnYyijIv6Pv1lKc7Y3YyxY5TOQ26hlDMq8rzmO0cZQit15mB2NIYa+4UjeM4YyqMN9HGEMOZtQ1okYDxH+d4N7hAesVxKwDSP4P3e+SlCRP/O29SqmtuZNfmUMZdhFGGe9ysvtZf2DfogCdOBx17GR1vMiA8t2nkFmNONB9jWGmBvGycwwhlK/8c/h7y7Qmpc5bMOisv1RZ7CK+B1vW6+kX+jN+3QwhrVOZpL1KgF6MI4exlCirXmdm6xXebqjrPXKGSyPRUulW8q5ZVvvJeUacpefEwlSzM1cxBKDWM9R/IsGxpCnFbQo+/1bsz2DtSPv+LEplaoad/IQNTOeQncm+DmRKEWcx0d0N4i1mjKEQdarAAwqe73KdsHqz/u0cnuRNuoE3mG7zL766tzCcLZ0M0icbRnO3dQzCIo4g0840iACcXP5os+mSlzL+Z7iL5XJXI5lWAZf96487E5Yos3gtzyZ6QR25C7PHQzMm+xfnj+ezRmshgzjAuuVVEb1eZE/ZOwdU4ELGWO9SrjNeYKhZbktbyrV4VomWK8CdG35/ngWS8aOPOtKNlK5DeLUsl8/k3Db8ED59lUVYyu5l4uZmanXXMQArqWpgx+gCexKcfn20rLmUMZar6QcHM0ommfilZ7AROtVilTiDD7mLCpl5hV3YSwPWK8C9vfy1auszWAV8X9c5dpfUs5m0483U/0K6/JPTnCgU2k6V/NvVqX8VbbhEo70FJjATaMlK8v3V7JUNqrxGNdYr6Q8NGQYA1L8+rrxkfUqtZpzJxNTXT7a8BQT6G+9CsF15a1XWZrB2oxn6eQ2IuWtmKu5uLyT5QlQlas4z12wDBjPlTzL6pS9ql34M0e5/YbkO7ZnqQWrZNvykmdeSYF5koEsTtUras3DtHdgM+MLbuXu1GzDXbiQ3s5bhei3/LP8fykbA7I3z9LILUQK0Psckpqb6lbgPK6iqoOaMTO5jdsTfnVhJfrze3ZzMEOV0/xVNgpWPx6iuluIFLCvOJgpKXgdW/EABzicGbWEIdzNqEQ+9204hVPZykEM3TncmstfS3/BOpcbPCothWIehyX+msIjudN7tGXep9zHvQmay6pIV87g8AwtPFFIM9gut1uHp7tgVeRGfuvWIYVmGScyKLHP3iUZtO62/ByP83JuX6WRKaIjR3Osa1xFKKfzr9JesKrxAEe5bUihKuZKLk/kM9+bhzJ8G2uVbAmvMYQnYnn6e2v6cxw7OEiRms5OLLNgra8Jz9HRbUOKwK2cl7CL3qtwJX/w5AGVYh4v8zLD+CkmkwX70pO+bO/AFMCJPJjrX01rwdqRl9jWLUOKyOOcyPLEPNtWPMyuDpo2YTUf8DIvM7b8S0wGZDt60ouu1HAwCmQy7XJf+z+dBas1r7C5W4YUodc4nAUJeJ5FnM4N1HTAVGaLGM8oRjOKuZH8vorsRGe6sE9G7v0ZZ4fyXD4fNumzJy9T3+1Citg79I7oCyh3W3AvPRwq5WQVHzGWSUxiIrMDf/RqtKItbWhPR2oZdiyMoVM+96xIX8Han+eo7XYhFcBH9OD7GD+/ftxJQ4dJAfiOSXzGNKYxnWn8nNNjVGEbWtCcFmxHG3Zw0YWYKaYTY/J5gLQVrIN5wkVFpYKZxoF8EctnVptbOMkBUijm8B2zmcVMZjObeSwCFrCSVfxMNaoDdalAFerSkM1oSEMasgWbe5lFrD2c743t01WwDmGwt7uQCuoHDuSj2D2rPXnYa7Akldlidubr/B4iTf35OJ60XkkF1pTXaBurZ1SJyxltvZJUDlflW6/SNIP1K25zulWKhbn05L2YPJdteYhODomkcviGnfJfbDYtleT/+Jf1SoqJ+gxn71g8k4FMtF5JKqffBbGWfzpmsP7CxW4PUqwsoA9vFfQZNOHf9HYgJJXTW+wXxMOkoWD9gwvcHqTYWcTBBaxYh3APjRwESeW0mt35MIgHSv5htautV1Is1eRl9i/Ib67OzTxjvZKUg38HU6+SP4P1Ny5ya5BiaxG9eTPi37kHD9PS6CXlYAEt+SGYh0r2DNbV1isp1mryXKSnu1fiMt62XknK0aVB1atkz2BdySVuC1Ls/cxBvBvJb2rOQ3QxcEk5GsverArqwZI7g3WZ9UpKhDoMZdcIfs9pTLJeScrZCk4Nrl4lt2Cdw+VuC1JC1GM4rUL9DY14mrupZdSScnYtk4J8uGQeIjyJe1N3m2op3b5jX74M6bEP4j62MGJJefiMdiwN8gGTOIPVj3usV1LCbMkItgnhcatzM0OtV5LysprTgq1XSSxYPXiUim4LUuJswys0Cfgx2/Au57jDJSlPdzIy6IdM2gdTV16imluClFAf0JWfA3qsilzI5VQ2VEl5+o7WzM92wWrDW9RzS5AS7A16siyAx2nGg+xrnJICcDjPBP+gSTpEuC3DrVdSwu3P4wEc5O/Ph9YrSYEYEka9IkFnMzUJ6RRZSdHaiQa8nMffb8iDXEZ1g5QUgNn0ZWGWC1ZtXqG124GUCh1ZmfMJpd0Zxl5GKCkgJ4d1p4lkFKwqPE9ntwIpNbrybQ53rK/GP/gndYxPUkDu4ZqwHjoJJ7kX8QAD3AqkVFnJIeU8UNieh53HlhSgz9iNRWE9eBJOcr/ceiWlTiUG0b4cu1nnMsZ6JSnQ3byB4dWrJMxgHcsjLiMopdL37MU3Zfhz2/AA+xuXpED9kWvDfPi4V5f9GEZVtwIppT6iyyaX9+vPHTQwKkmBGklXVmW3YO3MaOq7FUgpNpS+rCz1v9blVk8RkBS4ebTj63B/RZyvImzECDZ3K5BSbXsa8WIp/+0AhrOPEUkK3EDeCftXxLdgVeY5dnUbkFJvD2YxtoRPgEu5x3s3SArBvVwd/i+J7yHC+zjJbUDKhJX05LX1/s0uPEJbg5EUgk/ZPZy129cX12Ua/mC9kjKjEoPZYZ3dvjN413olKRQL6RdFvYrrDFYvnk/QXRIl5e8T9mYe0JR/c7BxSApFMccwOJpfFccZrNYMsl5JGbMTj1CRo5hsvZIUmhuiqldxnMGqx3vrHCyQlB2TaGMIkkIzgoM2sixMygtWBZ6jt9uAJEkK1Dfszk9RFpp4ucJ6JUmSAraCY6OsV3GbwTqUp73voCRJCtiZ3BXtL4xTndmZMdRxG5AkSYG6l1Oj/pXxKVg1eY9WbgOSJClQ4+nEkqh/aXzOwbrTeiVJkgL2PYdEX6/iU7B+zfFuA5IkKVAL6cM3hfjF8ThE2I53qO5WIEmSArSKI3iuML86DjNY9XjKeiVJkgJ2bqHqVRwKVhH3s63bgCRJCtR13Fa4X174gvVbDnUbkCRJgXqCPxby1xf6HKx2jKGaW4EkhWYEe/s5q8x5h26FuHbwfwo7g1WTx3zbS1JolnAe3Tg6uhvcSrEwjcMKW6+gYkF/+x0c5FYgSSF5nx68CHzKj/Q1DmXGHA7g60I/iUIWrKP5m1uBJIViFVcxcO3NbcdRTFdDUSYs4mDGF/5pFK5gbc1LHh6UpFB8ySE8yOp1/s2bNGYPg1HqLeVQ3ozDEylUwSriCW+NI0mhuI/D+GKDfzuUndjFcJRqKziKl+PxVAp1kvtv6O52IEmBm8dxnMKCEv7LagbwvAEpxVZzYuEWFv2lwizTsC0TqOWWIEkBe5WT+G4j/70Kz9DLmJRKxfyKu+LzdCoU5Hfeb72SpIAt5Y/02Gi9guUcyVtGpVT6Q5zqVWEK1h/Yx+1AkgL1EXty7XqntZdsMX0Za1xKnYv4R7yeUPSHCHfhfaq6JUhSYFZzHZeyvMx/vgGvsquxKUWu5qK4PaWoC1Yl3mF3twRJCszXnMgb5fw79Rjuog1KjX/y2/g9qagPEV5ivZKkAD1M23LXK5hHT8YZnlJSr86J49OKdgZrN8ZQ2W1BkgIxn7N5OOe/XY9hdDREJdy1/DGeTyzKglWND9jZbUGSAvE6J/JtXo9Qn+EeVVCiXRzfm+5FeYjwr9YrSQrEMn7HgXnWK5hLN0YaphKqmPPifE/j6Gaw9uCdgt5aWpLSYgrHB3Yz2xo8SU8jVeKs4lfcE+cnGNUMViXutF5JUgB77XexR2D1ChZzKE8YqxJXr06Jd72KrmD9wTVXJClvP9CbM1kc6GMu5xjuNVolyHKO4sG4P8loZpW253GvHpSkPA3iYCaF8LjFPE899jJgJcIiDuXF+D/NKApWEYNp6RYhSXmYz+lcytLQHn8oS+lWgLt7SOUzl945rPyW0oJ1Eue7RUhSHt6iR+jX+41mGn08W1axNo0D+CAZTzX8vZUGfEIjtwkBS/mJ2cxkNrOYveZnFfOA5SwCFq25l1otKgP1gcrUohoNaUhDGrHZmv+vcUFuUi4VynIu5boy3MY5CD0ZQi0jV0y9yyH8lJQnG37B+he/cpvI7NfCN0xjOtOZxnSmMSOgx61CM5rTguZr/ndTo1aKTeEEPozw9+3BCzQ2dsXQ05wQ8AUeiS5YHXjXCeeMmcFkpjCOcXzCqkh+YxV2oAOtaE1HvxiUKsXczQUsivi3tuAFWhm+YuYWzo9oHjcRBasCY7xfe0a+Bj7mbcYxiUn8XNBnsg1taMue7G3VUgp2Vk5mWEF+c12GcKADoNhYxXn8M2lPOtyCdSZ3uF2k2gomMppRjGBW7J7bFnSmC53Z1TO2lEhPc0YB31cVuZnfOAiKhUUcy/PJe9phFqzN+JQGbhmptIyRDGMU41gR++fakE7sTy/vhKkEWcB5MVj68/dc6+6JCm4GfRmXxCceZsHy9PY0msZQXub1yM8KyV8zetGTbl4hpdh7mwF8GYtn0ptHqOuAqIDGcyhfJ/Oph1ew2vKBp7enyAre4GVe5pOEv44q7ENP+rCTQ6qYvtOu5OqILg8pix15lh0dFhXIQ5zJkqQ++fAK1nBPkUyJ1bzDEB7nx1S9qtb05xi/OBQz0xjA6Jg9p9o8yGEOjSK3kou5NskvIKyCdSRD3DpSUq0G8UNqX2Fr+nMcOzjUisne+lksjOX3xP9xtTfRUaS+pz9vJ/slhPOWqcYUWrh9JNpE/s2QwJYGjfd7oCPHcYIXZKigfuQ0Xojx8+vHvdRxmBSRkRyV/F37cArWRfzN7SOxFjKIu3k3Y6+6Gv04nX3dS1dBPM9psb8ByA48QVuHShG4mT8k4Ar1ghSsxnzunk5CjeMhHmRuZl//DpzKyS5Rqkgt4U/cQnEidkNu5TQHTKFayq+5Px0vJYyCdTu/dhtJ4If8Q9wR6R3P4qoKh3I2+xqEIvEeA/gsQc/3dG6hmsOmkEzlCCal5cUEX7B2ZBKV3UoS5Sdu53ZmGsQ69uD3HEElg1CIVnIVf2Flwp71rjzm9bcKxSOcVeCbrcW8YD3tBb2J8gW3cneS7k8eoeb8ijOpZxAKxXQGMjKRz7w613COA6hA/czZPJSulxR0wdqLtz1NODFGczNPxWhJwziqw8n8jq0NQgF7iN+wIMHPvx93U99hVEDe5Xi+SNuLCroMjaKzW0pCytUljDCGMqnCSVzGFgahgMziDJ5O/KtoxiN+3isAK/kHl6ThqsFwC9ZhKfjQyIJ3uITXjKFcavBrLqSRQShvQzklJSvMVebP/NkzFZWXLzmeMel8aUEWrAp8QDu3lpibxF94IhGXhMdPTc7mQg+LKA9LuZzrWJ2iV7QHD3pnT+VsCGcwL60vLsiCdTwPu7XE2mQu4RnLVV7qcgEXUMsglIMPOIGPU/eqqnMtZ3vurcptHr9iUJpfYHBvispMYXu3mNiaxaXc5QntgdicqxhIBYNQOaziOi5jeUpfXXfu9VIQlcsL/Jpv0/0Sg/uSOMl6FVsruIud+Zf1KiAzOJk9EnqBvQrjK7rxp9TWK3iVnbg2VYc+FaafOJG+aa9Xwc1gVeVz919i+9F3Ph8ZQwj6cgvNjUGbNIQzM3EDqi7c7flYKsP74SxmZeGFBjWDdab1KpY+4WAOtF6F5Hlac4WLtGqj5nAUR2Xk/p6j2I3rnSnXRnzJgRyVjXoV1AxWNaaypVtOzCznKq5O8UGJuNiWO+luDCrRq5zEdxl7zXtwJ7s69NrASm7m0iztkgYzg3Wq9Sp23mE3rrBeuUemglnKH+mRuXoFY9mdM9N0RzkFYiKd+X22ZvyDmMGqwuds49YTIwu5iNs84TRSTbiFo4xB63ydHJ/pg/NbciP93QwEwGL+wvWJu6153oKYwTrJehUrL9OaW61XEfuRozkk/VfFqExWcz0dM37u43ccRa/03V1O5VbMo+zINdmrV0HMYFXmU1q4DcXEfH6btvuRJ0od/sFpxpBx33Ci9/lcoyoXcJEL82bYWM7lnay++PxnsAZYr2JjFO2sVwX1M6fTj9kGkWGP09Z6tdYyrmZHHvL+EZk0g5PYK7v1Kv8ZrAp8xM5uRzGwkr/xFy+QjoUm3EcvY8hkwf4DdxlDCXbnZjoZQ4Ys5w4uyfqlDhXz/PuH8xu3pBiYSm8ecS8xJhbxGAvZP+93l5LlDQ7idWMo0ffcx1Q6UM8oMuFJDuUxlmU9hnxnsN6lo9tSwd3LuSw0hpjZlUdd1TpD++uXcL2XlmxCVc7mIhoYRKpN4HwPkgdRsLq6v1Zwizidx4whlmpwBwOMIQMmcwLjjaFM6nMRZ1PNIFLpCy7jMXc0/iu/gxh3eIPnAvucg3jNGGJqBU8zm+4eKky1Ym7lKBfoKLOlvMLD1KFNYDdqUzzM4EJOZbynqvxPPjNY7fkgsJtFKxcvMIB5xhBznRnMFsaQUt9zMsONIQc7cCnHWbJSYjbXcav3Zf2lfDbvP1ivCmg1l3GI9SoBRtOBkcaQSk/Q1nqVo88ZQBuGON+RgnL1Z1pwrfVqQ7lXpC2ZRmUDLJC5nMBLxpAYlbmec4whVX7mXO43hry142KOcCYroWbxD25jgUGULPfN+jfWq4L5hD2sV4mygnM50Vtvp8ho2luvAjGB/rTmAVYYRcL8wIW04BrrVelyncGqwdc0NL6CeJtDmWUMCdSJZ9nMGBLPRX3D0IwLOJ3qBpEI07iZu1hiEOEUrDO40/AK4mFOc/m2xNqZF721VMJ9wgDeN4ZQbM5vOdN1smLuA67hKXcwwitYRXxEK8MrgL9wmSeFJloTnnNx3sQq5g5+78m8oarJSZznAkCxtJoXuNnVL8MuWD0YanSRW8EZnvWRAjV4mMONIYF+5BTPfYxEBQ7hAvYxiBhZyP3cwucGEX7Beo6+RhexnznCJUVT8/VxA+caQ8I8y+nMNIYItecsjqOmQRTcF9zBPS4KFE3B2oYvXZs6YnM5mDHGkCIXco0hJMYS/sTNxlAAdTiGc2htEAWymte5yzOuoixYV/Eng4vUjxzERGNImd/zd5fqTYR3OYGpxlDAb6nunElfqhhFpL7jHu7mO4OIsmBV4WuaGFyEZnAgk40hhc7kdhdYjLmV/INLXKMpBurTn1/T3iAisJzhPMjTrDSKqAvWcTxibBH6ku5MM4aUGsi9Hm6PsakM8NB8rHTkFI6hrkGEZgL38YgrLRaqYI2ki7FF5hO6O0WbakfyiIc+YupuLmChMcRONfpyPD2pahSB+obHeYQJBlG4grULkwwtMlPoyk/GkHJ9ecKKFTszOZ1njSHG6nMkx7OPB9kDMJshPMYoVhtFYQvWjZxnaBGZyn58bwwZcCSPe6AwVl7iVH4whgTYmiPoR2drVs7V6hme5FXPMoxDwarCtzQytEh8y76ee5UZA7jfr4iYWMKfuMX7JSTKZhxMf3pQ2SjKUa1eYghDrVbxKVhHMcjIIvED+7pmbqacxT9dtCEG3mcAnxhDIjWkN304yFPgN2ESL/ICY1zbKm4Fayg9jCwCs+jKR8aQMX/g74ZQUKu4lsvdo0+4yuxDb/qyg1H8whLe5AVeZLpRxLFgbcM0D2NEYD7dGGcMGXQFlxpCwUxjIKOMITV24EC60ZX6mU+imIm8wnBGscTNIr4F6zIuN7DQLeVAP+Yz6xZ+awgF8QDn8LMxpE5FOtCd7uxNtQy++qmM5DVe5Uc3hLgXrCKmsq2Bhb6vMcCFXDOsAk9wuDFEbB6/4VFjSLVKtKMLnelGgwy82i8ZzSiG8ZUDn5SC1YWRxhW6P3KtIWRaDd5gD2OI0HBOdjmUDO3CtGEf9mQPWqbuopL5vMcY3mUMsx3opBWsOznDuEJ2F2caQuY15R2aG0MklvJHl2TIqLrsTkf2oAPbJPp1/MwExvMh7/GxC4UmtWBVZYYnC4ZsKH29uaaAVoymnjGEbjwneBt1UZ+2tKUN7WlNjUQ841VMYzJT+JAP+cIdhOQXrH48YVihmsA+LDAGAdCVod4+J1Sr+QcXs9wgtI4KtKAlO7EjLdmRLWL13BYylal8zmSm8DFLHaw0FaxnONSwQjSDjnxrDFrrRO43hBD9TBO/pLRRdWhB87U/zSI+hrOEr/mGb/iaaUxlqlcCprdgNeR796dDtIKujDYGredWzjaEEB3mzZxVLtXZnM1pyhY0Zksa0ID6NKBBngtArGYec5nHLH5iJj/wIzOZwXfMNPDkq1SmP9XPehWqC6xXKmGr2JXOxhCaoyxYKpclfMmXJfz7GtSnOnWpTjXqUpVaQCVqr61l/13ecxU/A0tYygJWMpcVzGOeq6+lWdlmsF7jAKMKzSOcYAgqQRPGsaUxhGQBTVzZWlJ4ynLrm0bsa1ChmejyFyrFj/T3NOzQ1PbOqpIKXbD6l/FAospvLkew2BhUinf4vSGEpr8RSCpswTrKmEKymuP5whi0Ebd6NWFoDqG6IUgqXMFqShdjCsk1vGwI2oSz+dQQQlGLnoYgqXAF60gqGlMo3udyQ9AmLeJ4VhhDKDxIKKmABetwQwrpa/MEvzZVJuO4zBBC0deDhJIKVbAaeAVhSM7zwI/K7FpeN4QQ1KKXIUgqTMHq6xWEoXiGewxBZbaaE5ljDCHwIKGkAhUs70AYhu85zRBULt+6Xloo+lLTECRFX7Cqc5ARBa6YE5ltDCqnJ3nAEAJX07tUSCpEwTrIvbsQ3M2rhqAcnMt3hhA4z8KSVICC1deAAvc9/2cIysl8zjWEwB1sBJKiLlhF7tuF4GzmG4Jy9CRPG0LAmtHaECRFW7B2ZQsDCtgTfkEqL79hriEEzDksSREXLD92gjaf8wxBeZnBHw3BgiUp2QXLA4RBu8CTlJW3u3nNEALVhXqGICm6gtWAPY0nUK9znyEob8WcxVJjCFAluhuCpOgKVk9v8hyoVZxHsTEoAJ9xgyEEytl6SREWrB6GE6g7mGQICsjVzDCEAB1MkSFIiqpgub5xkOZyuSEoMAv5kyEEqCm7GYKkaApWK7YynABdyixDUIAe5D1DCJBXEkqKqGB50meQPuZOQ1CgijnXc/oC5FlYkiIqWN2MJkDns8IQFLAxPGoIgelIfUOQFH7BqsT+RhOYFxlmCArBH1lkCAGpSBdDkBR+wdqTOkYTkNX82RAUim+51RACs68RSAq/YHU1mMAMYoIhKCTX8bMhBGR/I5AUfsFyXy4oq7jSEBSaOdxkCAFp77y9pLALViX2MpiAPMQnhqAQ3cAcQwhEJToZgqRwC1YHahtMIFbwF0NQqObzD0MIyH5GICncguUBwqDcy5eGoJDdzE+GYMGSlISCtY+xBGIZfzMEhW4R1xlCIHanpiFICq9gVaCzsQTiXr4xBEXgdmYaQgAqexaWpDALVisaGEsAVnODISgSi7nNEALh6RGSQixYextKIJ5hqiEoIre6pnsgPAtLUogFa09DCYTXdik6c3jIEALQkeqGICmsguUaWEF4h7cNQRG6kdWGkLeqdDQESeEUrDrsbCgBuN4IFKnPeM4QAmDBkhRSwdqzlJvnqDym8awhKGIelA5CByOQFFbBUv5uYJUhKGKjGGMIedvdCCSFU7CcIM/fQh4wBBWAizXkb1vqG4KkMAqWE+T5e5wFhqACeJK5hpCnIj8DJYVRsBqzhZHk7W4jUEEs4RFDyJsFS1IIBcuPlvxN5D1DUIHcZQQWLElxLFi7GohfcUqwSdb7vHmauyQLVgwt4VFDUAF5gDpfzWloCJKCLli7GUieBnuasQrqcX42hLwU+TkoKeiCVZcWBpKne4xABbWQQYaQJw8SSgq4YO1CkYHk5RtGG4IKzIPU+fI0d0mBFyzl53GKDUEF9hbfG0JenMGSFHDBam0ceRpiBCq41TxpCHlpRgNDkBRkwWpjHHn5kvcNQTEw2Ajy1MoIJAVZsJzBys8gDxAqFkbztSHkxc9CSQEWrKY0Mo48C5YUB8UeJMyTM1iSAixY7rPl51MmGIIs+6ngBT+SAixYOxpGXjzBXfHxHl8ZQh6cwZIUYMFqaRh5ecEIFBvFvGgIeWjKZoYgyYIVB7O8glCx8rIR5GUnI5BkwYqD4awyBMXICJYZQh52MAJJwRSsKjQzjDw4X6B4WcRIQ7BgSSp8wdqWSoaRs9UMNwRZ+i1YkvTLguUBwnyM4ydDkAUrRfxElBRQwdrOKPwqU6p8zJeGkLMd1rvLhSTlXLCaG0UehhqBYsgD17mrzpaGIMmCVViLXKJBsfSmEeTBWX1JFqwCe5cVhqAY8jrCfHhdtaRACpYfJrkbbQSKpe/42hAsWJIKWbAaUNcoLFhKnVFGYMGSVMiC1dwgcraaMYYgy3/q+KkoKYCCtY1B5Gwy8w1BFiwLliRtWLC2MoiceRBG8TXJ+p+zraloCJLyLVibG0TO3jYCxZYHsHNXmSaGICnfgrWFQeRsrBHI7TOV/FyUZMEqmCVMNQTF2EQjyJlruUuyYBXMJFYZgmK9hSpXfi5KsmAVjPMDirfPWWwIOfLcVEl5Fqxq1DeIHH1kBIq1VUwxhBx5iFBSngWrMUUGkaMJRqCY8yBhrpzBkpRnwWpoDH55KbU8jJ2rpkYgKb+C1dgYcvQtsw1B7gSk1GZGICm/guUMVq4mG4Fiz/MEc9XICCTlV7CcwcrVF0ag2PuRhYaQk2rUMgRJ+RQsJ8JzNd0I5HaaYn42SsqrYDkR7heX3E5lwZIUcMFyFSy/uJRmXxqBBUtSIQpWHWPI0TQjkDsCKeYFQJLyKlh1jSEnC5hlCLJgpZg7n5IsWH5tSaVwptWCJakgBcsPEQuWLFiyYEmyYMXCd0agRJjPAkPIibP7kvIoWBVcTC9HM41ACeEtnXLjzqekPApWbYqMISdzjEAJ4eUYuXEGS1IeBauGIfilpZRzBis3tY1AUu4Fq7ohWLDktqoS+OkoKY+CVc0Q/NJSyjmDlRs/HSXlUbDcR/NLS26rKomfjpIsWAXgDJbcVi1YklRKwXISPDcrWGgISghnsCxYkiIvWH6E5GYRxYaghFhsBBYsSVEXrCqGkJPlRqDEWGYEOXF+X1IeBauiIViw5NaqEvjpKMmC5ZyA5NYasCLvcyHJguWcgGTBCpqfj5JyLlgVDMGCJbdWWbAkBVuw/ABxTkBurSpZJSOQZMFyTkByaw2Wn4+Sci5YHiLMzQojkAXLgiVJpRUsl8v0g1dp54GuXK0yAkm5Fiw/QHJT1Qjk1mrBkiQLVrBcAV9urRYsSbJg+ZWlzHIGy4IlKfKCtdoQ/MqSuwOyYEkKtmD5AeJXltwdUEmK3QGVZMHyK0tydyBYfjpKyqNguZ6TX1lyd0Alcf0wSXkUrCWGkJNqRiC31pTz01FSHgVrqSHkpDrVDUEJ0dAILFiSoi5YfoTkajMjkNuqBUuSSi5YzmD5paW0cwbLgiUp8oLlR4hfWnJnQBYsSRYsv7QkdwYsWJIsWH5pSW6rybPYCCTlXrAWGEKOnMGS22q6zTcCSbkXrBXOYTkrIAuWLFiSgi1YfojkqqkRKBGqUdcQcvKzEUjKp2D5IZKb5kaghGypRYaQE3c+JVmwLFiSW6oFS1KcCpYfIrlpRG1DUAK0MAILliQLljMDktupBUtSCgrWPGPwi0sp5gxWrmYbgaR8CtZMY7BgyYKlDfxkBJLyKVizjMGCJQuWNuBno6S8CpYzWLna1ggUe7VdEjdHKzwHS1J+Bcu9tFy1MgLF3i5GkKNZFBuCJAtWIWxPTUNQzLUxgpwLliTlVbA8RJh7eq0NQTHnDJYFS5IFK3GcHVDctTWCHM0wAkn5FawFLDQIv7zkToDW860RSMqvYMH3BmHBUiptTQNDyJGfi5IsWBYsyS3UgiXJgpUWDdjSEGTBSqXvjECSBatwOhiBYmxXI8iZJ7lLsmAVUCcjkNtnChX7uSjJglVIXYxAsdXCQ9g5+4FlhiAp34L1jUHkrANVDUEx1dkIcjbdCCTlX7C+MoicVfMsLMWW86sWLEkFLVjfs9QocuYsgdw202eaEUjKv2AV87VR+CWmlKlHK0PImfP6kgIoWE6H51ewigxBMdRp7ftb5ednoiQLVoFtxk6GoBjyDCwLliQLVqIdZASKoZ5GkLNVfiZKCqZgfWkUeehlBIqdprQ3hJxNZ7khSAqiYE01ijzsRw1DUMz09NzAPHxqBJKCKVifUWwYOavG/oagmHFeNR+fGYGkYArWAn4wDL/MlBoV6W4IefjcCCQFU7CcEs9PbyNQrOxFA0PIgzNYkgIrWH6g5KMFOxiCYsQrCC1YkixYqXCwEcjtMSUW8o0hSLJgxcORRqDY2JbdDCEPU7zoR1JwBWuKYeSlM9sYgmLiaCPIy0dGICm4gjWNRcaRhyL6GYIsWKkw2QgkBVewVjuH5ZeaUmFH2hlCXpzBkhRgwfJDJV97sp0hyKpvwZKk9QvWJOPIkwcJFQf9jSAvc/neECQFWbA87yBfRxmBCm4XdjGEvIw3AknBFixnsPLVgZaGoALzAKEFS1LMCtYMfjSQPJ1sBCrwO3qgIeRpnBFICrZgwYcGknfBqmwIKqBerseWtw+MQFLQBcsPlnw1oa8hqIBON4I8LfauFpKCL1jOYPkFpyRr6j0I8zaeVYYgyYIVPwfRzBBUIB6izp+fgpJCKFhfMtdI8k70FENQQRS57QXgPSOQFHzBKvYC5QCcSkVDUAEcwPaGkLd3jUBS8AXLC5SDsKUnuqsgzjSCvM3zFHdJ4RSsMUYSgAuMQJFrweGGkLd3KTYESWEUrHeMJAD7sJchKPJaX8kQAihYkhRKwfqebwwlkC87KUoNOMkQLFiS4luwnMMKxhG0MARF6FfUMoS8FXsNoaTwCpZ7cEGoyHmGoMhU5WxDCMDHzDIESWEVLE9zD8ZpNDQERWQAmxtCAN4wAknhFawPWGosAajBGYagSBRxviEE4k0jkBRewVrKWGMJxAXUNgRFoB+tDCEAxRYsSWEWLHjLWAKxmefFKJL38CWGEIiP+dEQJIVZsEYaS0D+j3qGoJAdS1tDCMQbRiAp3II1mpUGE4h6nGsIClVF568C4wFCSSEXrIV8aDABOZ8GhqAQDWRHQwiEZ2BJCr1geRZWcOrye0NQaCpzsSEExDOwJEVQsN4wmMCcQ2NDUEhOYVtDCIjzV5IiKFhvssJoAlKTPxuCQlHD+asAuVspKYKCtcA7cgXoLHYxBIXgQrYyhIB4BpakSAoWvGo0ganEjYagwG3t+X0B8gwsSREVrFeMJkDdOdgQFLDrqGEIgRlhBJKCVVTKv6/EbOoYT2Cm0prlxqDAdGJUqe9eld/BvGwIkoJU2gzWSs9ICNT2/MYQFOD79mbrVYCWeIq7pKgKlgcJg3YpjQxBATmZ3Q0hQK+yxBAkRVWwXjKcQNXjr4aggLalvxlCoF40AknRFawv+NR4AnUa+xiCAvB3mhhCgIotWJKiLFjOYQWf9T1UMwblaT9OM4RAjedbQ5BkwUqylq7qrjxV5V+e3h6wF4xAUrQF6y0WGFDA/siuhqA8XMbOhhAwDxBKirhgLec1AwpYJe6kojEoR21dvT1wMxlrCJKiLVhOnYdhD84xBOWkIv+msjEE7CVWG4KkqAvW86wyosD9he0MQTm4wNWvQuABQkmh2NTpsm+5tEAI3qcTK4xB5bILY70KNXAraMw8Y5AUvAqb+O9PG1EIducSQ1C51GCQ9SoEI61XkgpVsIoNKQR/Zj9DUDlcTytDCMGTRiApHJteUedD2htTCL6hHXONQWXSixdd/SoEq9iSH41BUhgqbPJPPGNIodiaOw1BZdKY+6xXoXjDeiWpcAXLKfSw9Od4Q9AmFfGg9x4MyWAjkBTeh/emTfbsj5D8zB58ZgzaqD/wd0MIxQq2YJYxSApHhTL8mUHGFJI6PEcdY9BGdOUqQwjJa9YrSRastNqR+z27RqXamkFUMoaQ+MkmKURluS/ebA6nqVGFZGcW8I4xqASVeZ6djCEkyzmDJcYgKSwVyvSn3NML07UcaAgqwW10NoTQDGOOIUgqfMFyudHwVORhtjIG/cIATjeEELnbKClUZT3/5x32MqwQjaErS41Ba+3BW94aJ0RLacLPxiApPGU9gfYhC1ao9uI+jnOeUGs041nrVahetl4pZxVoQn0arPM/NahNTapQn6rUAKqvff9WZsXavzef1SxjMYtYznxWMI95zGMu85jHHH5gJssMN03KOoPVkO+pYlyhupqLDEFAXUbT2hhCdYyHCFVG1WlBM5qxOVvShC3YnMZlujwsF/P4gZ/4ge/4im/5hm/4wR3v9BcseJrDjCtkp3OPIWReZV6mmzGE7BlOdxUslTqhsCM70ZJtaUZzGhf0uSznK6au/ZnOcocnjQXrCG+aE7oV9GG4MWTcfZxkCBGYwUm+27RWY9rRllbsyE40jPF3xFQm8zGTmcKnlq30FKyqfE8DAwvZz+zDRGPIsEu40hAiUszN/MmLSzKsAjvRgba0o20C7/e5gil8yId8yHgWOJjJLlhwO782sNB9w158bwwZdQIPurJ/pCZxPJOMIWO2Yg86sicdUnKrstVM5T3e5V3Gr3NKvRJVsPbgPQOLwGT29+yQTOrNU15KErml/ImbPZE4AyrQhn3pzD5skeKteRzvMoqRfockrWDBBNoaWQTG0Y35xpAxB/CiSzMUyHBOYoYxpFQlOrIfXehM3cy85mKm8CZv8ZbbdXIK1jncbGSRGMOBLDSGDNmL4dQ2hoKZx6953BhSZlu6053u1M9wBl/yKq8y3F32+BesBnznPnZEXqOPp99mxq68Tj1jKLC7OZ9FxpACdTmIXhzoLcjWWs47vMLLfOjB8PgWLHiUYw0tIsM5xHV9M6ElbyXwGqY0msYARhtDgm1Ld/pykOcylmImQ3meoV51GM+CdQCvGVpkhnAsq4wh5bbjrRSfdJs0K7iCa3zXJfCbbC/6cQg7GEUZLOF1nuUZZhpFvApWEZ+znbFFWLFOcDG5VNuJVzyQETOjGMB0Y0iICnShH0f4Liq3VbzFkzztskDxKVjwe64ztgi9yJGei5Va7Rhe4BtxqCTz+Q2PGEPsv706cxyH09Qo8rCaMQxiED8aRRwKVn2+pYbBRehN+nrEPJV2Z2iMb8qRdUP4FXOMIaZacRQneDQlwJr1Dg/yOD8bRWELlvdKi97b9GaeMaTM/jznwgyx9jUDeMsYYmYLTuB4V2QMxRKe50GGeg5iIQvWrnxgcBH7kB6ekJgqvXiS6sYQc8Xcyh88CzImKtKVMziMykYRqhkM4R5vIFWoggXvsYfRRWwKPfjWGFKiPw97IXlCvM8JfGoMBbYTpzDQxUwiNJp7GeS6cIVwIsX+RP7zLe3d9FLh96xye07Qz0LOdKMtmMoczZtuhQX5mcct7OwmGPUMVjW+ppHhRW4BR/OyMSRaRW7l18aQOM9xmgfpI7clZ3A6mxtEQb3BHTztgfLcPu5zsZJa7Gd4kavK0fzEOINIrFo8yXHGkEA7MoDJTDWIyOzH9dxBVy8EKbjmHMlpVOdjFhtG+RTl+Pca85V3JSyQWzif1caQQJvzPB2MIbGKuZvz/ZIJXQV6cxF7GUTMLGMw1zPRIMIvWC7WUEhDGOjio4nThhfZ2hgSbjLHM8EYQlOH0zmHbQwitl7jeoZ5y+iwC1Y7xhtfwbxPP742hgQ5kns92JGS/fiLuNEvmBBszgWcQR2DiL3x/J0hrDSI8AoWvE5XAyyY2RzHcGNIhIr8jf/L672muO3Fn+SiKYFqxgWc7spwCTKdm7jbA+ab+ujP7ytehVKD41jG2wYRe414lgHWq1TZlhP5go8NIhA78w/uZm8XEE2UevTkNIqZyArDKE1RXn93Eq2NsKCe5GTvUxhrHXnCM69S6l7OZaEx5KUVl9OPCgaRWD9xPbe7IGnJ8tmwi/m7ARZYP95lJ2OIrdN5y3qVWqfwIXsaQ8524GEm0d96lWiN+TvTuJCaRrGh/A5cVOZzmhligS3gHO43htipy20cbwwpt5Irucqb45Zbcy5hIJUMIjV+5K/c5XKk66uY199ezWp6GWKBVeUwWvOqCzfESmeGsa8xpF4FutKdEcwzijJrzLXcx+7OXKVKLQ5mAHOZ5BW2/5Pvqbc1+IrNjDEGvuFERhhDLFTiEv6c586LkuRnfsuDxlAGNbmAP7hgSYp9xEU8bwz/ke+XwAqqu1hDLNRlIA143YMVBdeM5xjg3nmmVOVw2vAqS4xiIyowgOc4hKpGkWKNOZZ9Gc+PRkEAF4/XZ7pLw8XGOI7nU2MooIHc6vsho5xF3piDuY5WxpARK7mLS5md9RjyP4yxlFqeaxIbW3AalXnbeawCpX8/F7l/nln/mUUe4btvAzvwAFfQyCAyowJ7cDowNtvvhiCWP2zINI+px8pETuc9Y4j4nXQ61zl3JT7iOCYZw1o1+QN/dLcjoz7jd7yQ3ZcfxIm4S6jNPm5JMdKEU6jDKFfYjUwrnuEsv0QENOZE5jLOIIAiTuZZ+rgcQ2Y15Dj2YFxWDxYGcwOPzZhGLbelmPmSM3nVGEJXhYv4E1UMQut4gVP5KeMZtOVfdHJTECu4lSuZn70XHsyl5IupR2e3opipzwC2411vpROq7jxDf5dk0C+0ZCBT+Dyzr78mV3Gfy1BrTc/Ym4F8kb0LsIK6BW1jvnAOK5YWcjU3uAhpKLbneg41BpWimNv5QyaXbjiUW9jGDUC/8AS/5YdsNctgLKKW52HFUhW6cTzfMcUoAlWHv/CgNzvXRndfO3I472TrK4UteZjLqOvwawOtOJVZjM/SR0BQ6vEFDdyCYutNzsvShh2qCpzAtTQ1CJXBCq7iSlZn5NX25w6/B7RRIzk9KwcLgzt3ZCkV6ea2E1vNOZ2tGc/PRpGnAxnMWR4QV5k/Y/dnH17PwDuvBUO4kOoOuTaqGaeygnezsNNRFOBj1WSqe/Uxt5z7uYLvDSJHnbmSA4xB5Taf3/BIqr9JTud610NUmU3kNMamf+8qOCtYTi+3m5iPdwd+TX3Gs9gwymlv7uOvtDAI5aAaR9CC11ieylfXnGc423XgVA5NOJnqvJXueayiQB+tKp96YW4iLORm/sFcgyijDlxBb2NQnr7kBN5J3as6mZu8h4Fy8j4npPl8rGDX71nFbA53m0mAKuzLr6jDFBYaxiZ04Vaup6VBKG/1OZGKjErRXnsjHuFC566Uoy04mZl8kNaXVxTw41XgfXZ1q0mMZTzCDUw2iFJ2Pw7n9+xpEArUGE7gi1S8kr7cTRMHVHl6htOZZcEqi/0Z4faSMKO5lhcoNoh1VOVoLmJHg1AIFvB77kr8O+Tv/DaEbxBl0Y+cwksWrLJ4yVPdE+gDbuAJlhkEsCW/4tc0NAiF6AnOZE5in/2OPE57B1GBKeYG/py2b6AwCtbOTPTu6Yk0j8HczoQMJ1CBAziDw91+FYEfOIWXE/nMB3KbK8EpcJM5jolpekFh3KR2Fs3YzW0lgarRgV9xIKv5jBWZe/Ut+D0P8htaU8FNQRGoxbHU5i1WJexZ38ulVHH4FLjGnMRMxqXnBYVzBH1zPnXJuUSbzyPcx/sZebXV6ctpdLNYqQDGc3yC7hTaiifY2UFTiO7jLJZasDbmQq5xO0m8r3iWIYxK8SusykH051BX8VEBLeVyrkvE0g3HcpeHBhXBTscRTLNgla4Kk1w5KCWmMZgHE7SPXTYV2Zv+HMdmDrBi4BVOivktrCrxVy50oBSJ2RzPMAtW6Q7hWbeSFJnEk7zEuBQskViL7vThcBo4qIqRnziN52P77LZmiCvCKUKruIRrkr54UJirmLxMT7eSlJnFCF7leWYk8tlvS1/6sI/rTiumHuLXLIrh8+rEkzR1eBSxFxjAPAtWyXZmApXdRlJoNWN5meG8n5BrDRuyHz3pydYOnWLuE46P3Y1DzuBWrxpUQXzKEUk+PSXcdXj/wQVuISm2mLGM4m3ejulexvZ0pjOd2dn1ppUYy7k0Rqe8V+YmznJQVDALOYUhFqyS1OZjtnQLSb3VTGEUG6rqjgAAWXVJREFUb/MBn7Ky4M+mLrvQkS508qCGEuoNTuTrGDyPRgxhP4dDBVXMlVyRzLOxwt6zP5rH3T4yZAWfM5kpjGMyX0b4eyvSjNZ0oBWt2cn1rJR48zmbhwv8HLbnRa8FVywM5sQkro0V/qGTYRzk1pFJs5jMdKYxjWlM57uAD3pUowUtaE4LmrMdO1PNwJUyD3E2Pxfstx/AE9R3EBQTI+jHXAvWL7VkoldtieV8zTR+ZDazmM2sNf97dhlu7lmbzWhEwzU/m7EZW9GczY1UqTeNAYwuyG8+mTu9REmx8jEHM92C9UtXconbhkq1mvnAEpYC8yimKjWAOlSkkjdcUsat4mquiPjMxiL+ykVGr9j5kb6MtWCtrzoT2d5tQ5Jy8B7HMzWy31aF+znW0BVLizmeZ5LzdCtG8DtWMokTvVBeknKwJaezkHcj+V01eZrDjVwxVZmjKeINC9a6ptOMXd02JCmnr5WetOM1Fof8e5rwCvsat2KsiP3ZgqHJuGlbVPNKdZnCFm4bkpSjHzmFl0J8/BYMdVkGJcKzHF2GC6QKrmJEv2cZ39LfrUKSclSL46jLG6wK5dF3ZQTNDFmJsBPteToGy1pvQpRnRj3DoW4XkpSHyZzA+MAfdQ+G0sBwlSBv0pcFFqz/2oqPqOtWIUl5WMqF3BrorUO68Sw1DVYJM5rezI/zE4zypiLfcr5bhCTlpRo3MzzAu7z25gXrlRKoMyNoFOcnGPXiCS9ysFuFJOVpFqfxbACPczQPuWa7EutjDuQ7C9Z/bMlH1HObkKS83cUFLMrrEQZyb2SXOklh+JzufB3Pp1Yh4t/3Hee5PUhSAM5gEp3y+PvHWK+UeDswkh3i+dSif3NNYHfXWpGkANRnIKt4O6dT3gfygPVKKVCXI3mB2fF7YoW4gc3mTGQztwlJCsRIBvBVOf/OAO6zXik1vmVfpsXtSVUowO+cwZluDZIUkH2YwHHWK2XYVrwa4JW1CS5Y8BT3uj1IUkDq8giDqV/GP324514pdbZlBE3j9ZSKCvR7a/JhXE9Lk6RE+pqBvLnJP3UQz1HVsJRCE+nKnPg8nQoF+r2LODGkO2pJUjZtwwhupspG/0xXnrVeKaXa8hK14/N0CjdN/C2V2M/tQZICU8Se9OLNUq+o2ouXqWFMSq2t6MSguNwGuqiAv7sSb+a1hoskaUOLuIC7Svj37XjDhZ6VekM5lOVZL1iwNR/S0K1BkgL/kjmZH9b7Ny0YzeYGowx4hv5xmMUq7JUkPzOVo90WJClg23M8H/HF2n9uxOs0NxZlwk5szXNZL1jwMU3Yw61BkgJWm+PZgtdZAdTgZdobiTJjV1bxVqGfRFHBY6jGO77xJSkUUzieyTxLL6NQphRzEg9mvWDBzrxHLbcGSQrBMsbSxRiUOcvpwRtZL1hwNI+7LUiSpMDMpwsfFe7Xx+N2CZNp7JlYkiQpMNU4mMdZVKhfXxSTGCrzhmtiSZKkAL3P/oWqWBViEsEKjmGWW4IkSQrM7jxeqGN18bmj+s9M5tjYzKhJkqTka0kthme7YMHnVGB/twVJkhSYvfmJ96P/tfGaMSpiCP3cFiRJUmBW0I2R2S5YUJsxtHJbkCRJgfmBDnwf7a+sELMIFnA489wSJElSYJryBFWi/ZUVYxfCbMZzbOyKnyRJSq6tqcPQbBcs+IJiurotSJmygidp5XXEkkKzF58zKbpfF8+Zor/yqFuClCnncDQ9oz5HQlKm3MNu0f2yuO4vVmMEe7ktSBlxE+cD0Ih7OMQ4JIVkOrszO9sFC5ryHlu7LUgZMIw+rFz7TwO5nZqGIikUwzmYVVH8ooqxjWAhIzgh6nP+JUXuE3qxeJ1/nsBTdGJzg5EUgu1YzZvZLljwAx9zlCe9Sqk2i67M2ODf3U8VOvnulxSCfRnJ9GwXLPiEBfRwW5BSaym9mVDCv1/Fq7xFN+oakaSAFdGNB1iS7YIFY6hNJ7cGKZWKOZkXS/2v07mXrWhrTJICVoeWDMp6wYJXaEE7twYphS7kjo3+92U8zRS6U92oJAVqZ77hw3B/RRLOcajMCxzk1iClzF2cWaY/14wH2de4JAVqEbvxWdYLFtTmTXZ1a5BS5CUOXWdpho2ryO+50muKJQVqHJ1YHt7DV0xECMt5jn7Uc2uQUmIsfVhW5j9dzGheYX8aGJykwGxBRV4P7+GTcxn09oymsduDlAJT6cKP5f5b1bmGcwxPUmBW050RFizoyOuu7ywl3vd0znkNmsO5m4ZGKCkg39KOOeE8dIUExfAeR5f5nA1J8TSfg/NY4u9pWvOSIUoKyFbcGdZDV0xUEJ8zwxvBSgm2hF6MzesRFvEY39ONyoYpKQCtmMwUCxZ8AOzv9iAl0gqO4LUAHmccL7CP52RKCsS+3MtSCxa8SR32dnuQEmc1J/JUQI/1I/dRh47erVBS3mrRiOcsWACv0ITd3SKkRCnmLO4P8PFWMpTRdKOO0UrKU3tG82XQD5rM/b8i7uZUtwgpQf7A9SE86mbcw6GGKylP02jDomAfsmJCo3iRnWjtFiElxJ+5NpTHXczjTONAV3mXlJf6VOLVYB8yuWcwVOEZerlNSAlwFX8O9fFb8oinDUjKy0r25IMgH7BCYqNYzhEMdYuQYu+mkOsVfEYnrmKVUUvKWSXuoVKQD1gxwWGsZAi70dKtQop1vboggt+ymtcZTlfvVigpZ5uziNHBPVzSL3KuypP0dquQYluvzo/wt9XhOs4wdEk5WkJbpgb1YBUSHsYy+vOK24QUSzdGWq/gZ87keOYbvKScVOf24B6sKBWBPEd3twspdvXqgoL83mY8yL7GLyknhwa16Gg61kGuxpMc7FYhxcgN/K5gv7si/8cV3q1QUg6m0prlwXwQpcFKnqAVrdwupJi4lv8r4G8vZhQvsx+bORCSyqkBC3g7iAdKz528KvJvTnTLkGLgcq6IwbOozjX81rsVSiqnBezIjCBqSVoU8xxbs6tbhlTgd+IFIa3aXl4rGcq7dKeWgyKpHKpSl+fzf5h07d0VcSu/cduQCmYVZ/LvWD2jptxPDwdGUjmsZo/8V3WvmLJQXqIC+7ltSAWxgoE8GLPntJBHmEPXYFdolpRqRbTi/vwfJH3O4cbEr+8lJc9i+vNSTJ/bLjxCW4dIEVjCLFYAc4HlLKIKNYGaVAEaUteAEuNoBluwNnQC93qJthSpOfQN5sqbkFTlKs73lHcFvFMxjWlMZzrfM4uZzGY2izf6NyrRkM1oSEOa0pzmtKA5jQwylr5iZ5ZYsDbUm8HUcPuQIvItPZkc+2fZnQfYwsFSXhbwEROZyEQ+46dAHrEm27MLbWlLW7fPWLmUv1iwStKZ57zxqxSJT+jJV4l4pg25iyMcMJXbSj7kbUYzjmkUh7qF7sredKITdQw9BmV6+3xKdJonzHfmJZq7hUghe4/ezErQ8z2Fm126QWW0nFG8wSjeY1Gkv7cCu9CFfTiQhg5CAd3MeRaskjXlBTq4hUghGkZ/FiTsOTfnYTo7dNqoHxnO8wwv8M3DK7Ar3enL3l66VaCCvRPTLFglq80Q18CRQnM757Aqgc+7EpdyUeqWqVEwJjGYp2N2TmEj+nAU3bx8K3L3cYoFq/QP0ts4w21EClwxV3J5gp//njzM9g6j1jGNwTzIlNg+v/r0pT89rFkRWkXbXLeILFy0XMTFXOHl2VKglnJivqvEFFwdbmWgQylgLg/xb/6/vfsOl6I83D7+PfReBFFUFARRQMSGioCiAiLSFMWu0dhijCUx5U3yiynGxBRbosaugIoUGyiI2EVFQJqACgJSVaT3ds77h4iUU3bP2Z2d8v2cK7kSQdi9n92Ze56ZeWZqJF5rAy7iSlo6aAEZyrkWrOKcx+NU9XMiZcgy+vBeTLYND1DXAU2wAt7lYYayMWKvuwNXca77tQDkcyTTLFjFOZ4X2cdPipQBM+jFF7F5N43oTycHNZHW8hgP8GlkX38dLuFGmjqQWTaEfhas4u3PcI7ykyKV0aucz8pYvaM8buAfVHJoE+Vr/se9LI/8+yjHmfzau2KzqoAjS3P6OFlXJtVkEN39rEhlcBe/jOR9gyU5moG0cHgTYhr/5hk2x+gdncgt9HYph6wZzHkWrJK7/l/5tRe8S6Wymet4NLbvrhr/4lq3DrE3g1sZltXV2HOlNX+ij5/grMjniPQX7kjaOjAFvM6ndPcmVylt39CTF2L8/rbwMhPpTHWHOrZmcSPXReCpmaX9hj7LcA6guQOdcXnUSH/rl8yueyQvcJCfGCkN4+nLggS8z314lDMd7hhayK30Z2sC3mk7bve2jYzbzMEsSu9fSeYZ28kcw+t+XqSUDeTkRNQr+JoeXBbwc+eUbRu4g5Y8loh6BR9wCr2Y47BnVCV+lu6/ktyztRX4Bzd5tlpK4cjtZu5P2HtuwVPecxwTBQzmV8xP3Puuws381seaZ9BKDkzvuavJfRZXPq8yg25U9lMjFWMJPXguce/6Wx6nCu08BIu8KZzLnTl+YHNubOU9nmAfjvBDkLHKupQP0/kXkr75aM4wDvdzIxXhHS5gcWLf/Sn05wA/BJG1hTv5Q6wWYyiNk3mYQ/wwZMRCDmZL6r896U+TX8YADrZiSYUo4D9cnMhj/+/N4zEaOQMQUWPpzqBYrtmWni95hAq0c42sDKjFTD5J/bc7AQ5wA//wVKG028HHpbxiDMBl/IeaxhApq/k1D8ZyravSOo5HnUrIgIkca8FK19E8SzNjkLabQD/mGsN2BzGAjsYQGR9xEbONYTeV+RO/dB6rzE7lzVR/a3nTAmAJT3qqUAKggLu4kGUGscMqBpBPB3dOEbCVv/AjvjWIPWxjDOM4zdnYMtqbp1P9rc5g7exSHqCaMSjRlnI5LxtDIY5joBcLh9yXXMK7xlCM+jxCb2Mo0wFo61SfBeAM1s6mMJyT2dsglFiv0ZVJxlCoRTzBvq6OFWLD6MYsYyjWegaxgs7u+0stj/KMSPW3aldVuIOfmYsSaCt/5c/kG0SxzuYh6hlD6GzjNv7kZe0pas8QGhpDKa1lf1an8httsXvuZEYxns6uf6uEmU13nnYHVaKZPEUbDjaIUPmWPjxuDClbwNMcz4EGUSqVWMh4C1ZpzaI/LX0iuRKjgIc4m3kGkZI1DGQNJ1PBKEJiAqcx2RjSspaB1OF4gyiVA3nAglV663iGbziFikah2FvCedydzvrEFlI+YDgdaWAUIfAcPb3ntRTyGcnXdPPe2FLYh9dTebqlBato4xnCMTQyCMXaEM5kqjGk7WsepxbHeb1mjt3JVR4clNoEJtKbSgaRtsqpPKHVjUNJBfTn/JkqBqFYWsnPGGgMZXAGj7GvMeTINm7kPmMoo6MYwX7GkKaN7MeKkn6Tk4MlfYH/ybFMMAjF0AgOt16V0UiOYLgx5MR6+livMmASJzDNGNJUhfNL/k0WrJJNp51PZFfMLOcSerLIIMpsKb24lvUGEbDVdEt1NSKVYAGdUrsrTju5vOTf4inCVLXiEU4wBsXCCK61XGXUYQzkGGMIzAq686ExZFB1XuJUY0hLm5KuXvUi99SPU59gBR29HFAR9w1X8HvWGERGfcvjVORED1kD8TWnMdEYMmoLQ2lLU4NIw0ZeLf43uDlITxMepIsxKKIKeIJfekt71pxMfxdvzLpFnMZnxpAFlRlML2NI42D1gOLvYPUarPTM5XQudwelSPqMU7nCT28WvU0bnjGGrPraepU1mziXV4whZQ1Kmm7xFGH6JvMwVWnr7J8iZAv/4nxmG0SWbWQYM+hMVaPIipV05RNjyJptPM+JNDGIFBXwfHG/bEkorQ48wOHGoEh4m2v51BgC05gBdDCGjFvNaS6ak3U1eM0bulK0ln1ZV/Qve4qwtN7jKG7yUmGF3hIu4xTrVaDmcTI3ubRLhq2np/UqkNLQzVsIUi6jPYv7ZQtW6W3lHlozzCAUWlu4k8PoT4FRBCyfe+jILIPI4Pb2XN4xhkCs4kzmGkNKLizuFz1FWHancQ+tjEGh8xbXM90Ycqg6d3OlMWTET/ifIQToMN6nrjGUaDMNWV7ULzqDVXavcyQ3s9IgFCILuJBTrFc5to6rOJtvDaLM/mm9CtinnOVJ7hRUKm5hC+8izIR8PuRx6tHGGUGFYrd+GxcxySBCsqN6itYu4FgmQ7nW09yB+5J5nOU+rUQVil6axYKVuZ3aSwznEG9wVY7L/pOcxcvFL3+nQK3hKVbSiQpGUSrj6OPnOSemAp2MoQQHcS+bLFjZ9xX9GctR7GMUyokPOY//em9rKEfmedqzr0Gk7Ws6F32Ni7LsHQ6npTEUqwLTmVb4L3kNVqaN4WiuY6lBKGAzOYt2fGAQITWDdtztia40beU8FhpDzhTwY++FLVHfon7B86vZUYtfcRPVDUKBWMgfeYJtBhF6XXmChsaQsl9wpyHk2OF86L6sWBuoz/rCfsFThNmxiTd4iALaet2FsmwFf+JiPnJuJBK+4FEa+wyIFA3iFkPIuW+YST8nY4pRkXF8bsEK1nrG8BT1ONyPprL2GbuLfoxhq1FExkaGsYjTqGQUJficHi4UEAqfsjfHGUMx1jCisH/srj/7WnMbPU1aGd9RP8jf+cogIukQBrrLKtYWTvTBOKFRlfEup12MRTQq7ByCF7ln3zR605bhnsJRxmziPppxk/UqsmbRgSnGUIxbrVchsoGLilqKQMD+HFXYP7ZgBWMivTiSIZYsZeDIfgAtuZ5FRhFpeS4+Wox3+YchhMoUfmsIxehhwcqtqfTjOEZYslRqG7mPQ7iUOUYRee2pYQhFWMnF3hMbOncx2hCK1N2ClXsT6EkbBnhRstK2jntpxvV8aRSxcLoRFOkm5htC6BRwuc/cLdKx7GXBCoNpXMqh3MtGo1CK1nAvzbjR04IWrAR4k/6GEEqL+Z0hFKE8p+75D723LXcacQtXUs0gVKwF3MtDrDaIWNmHJW59C7WOIzwFHlrleJsOxlCoh7hmz7iUux3njezHTT4IQkWawmU05V/Wq9jpar0qwh+sVyGWz48991LkdxoLVris4h6acllRj4pUgo2lF0fRny1GEUOeICzceO4xhFD7nNsNoVCNabb7P/IoKhzy6Mov6Ox4CFjPQO5lukHE+Pu+hH2MYQ/5HMdEYwi5SnzCIcZQiOt4YNd/4AxWOBTwKl05lDtYYRiJtpg/cSDXWK9irZX1qlBPWK8iYDO/MIRCnbTnkZTCpSYX8DMfBptIY7mH513CIwF+wv2GsIc1HMoSY4iEkXQzhD0sYb9d/4EzWOHbyDzEEXTlBXe0CbKCe2hFB4Y46onQ0QgK8VfrVWTc4paqEA13P3XqDFZ47ctlXM3BBhFzE3mIp1hnEAkyn0aGsJs5tPRpdxHyH643hD1cyaMWrOgoR2euojcVjSKGVjCAh7zaKnGauBBBIc5jsCFESD3mUMsYdjOAS3fdgSvM8hnNuTTiFj4xjBjZxiucx37caL1KIE8Q7mkqQw0hUpa5oEYhdrvM3Rms6GjFJVxOA4OIuE95lsd9omCCPcyVhrCbPrxoCBFTmzmFPX8v4fZnsQUrqirRnR/RjcpGEUHfMJiBjDOIxFfsQw1hFxM4jgJjiJzfcZsh7OZsnrdgRVtdzuICTqG8UUTEKp7nGV5nm1EkXgO+cru7m+6MNIQIqskc6hvDLv7Br3/4P16DFUUreIwu7M8NvO9xX8itZwhnsy+XM9p6JaCt9Wo3H1qvImoN/zKE3Zyw8//xqx51B3I2fTnRqhzCjc/LDOMV1huFdvIH/mQIu+jLc4YQUbWZ772Eux1S1/5hjTALVjzsSx/60okKRhECK3iJYbzmU+dViJfoaQg7mc1hzu1G2L/5uSHs4mgmWbDiaC960oOuHlHkzBeMYDjvsMUoVITFNDSEnVzPfYYQYQcy23Uad3EVj1iw4qs87ehBL1oYRWC2MZkRDPdRtSrBASwwhJ0s50CfYhBxA7nIEHZyPz+1YMVfC86kKx2pYhRZtIRXGc1olhmFUtDL9Z52cRv/ZwgRdxQfG8JO3qe9BSspqtKeznTmaMc6o7YyjuGM4WPv41Qa/sLvDWGHbRzMfGOIvLGcaAg7rKMW+d/9Ty+KjrsNjGEMsB+d6UQnmhhJGYvVeN7mLd717kCVwjFGsJNXrFex8LAFayfVac6n3/1PZzWS5kA6WbRKVawm8BZv8x5rDUOl9hX7GMIOvRhuCDFQjcXUNoYdLmCQBSvZGtGedpzIkc5iFmsFH/ABY/nIS3FVZvVZagg7LKLxDysGKdLu5yeGsMPt/O67/+HONakWMIhBQHXa0p4TOJZ9DWWHbcxkAu/zPjO/P5sulVkrI9jJY9ar2HjYglXY99wZLH3vAI7lWI7h2MQ+XaqAz5nABCYwyfkqZcFPuN8QdnzbDmaeMcTGRI42hO1m0fy7/+EMlr63kIW8AEBj2nAER3AEzRLwCJ51TGcKU5nKFFb5MVAWtTSCHT60XsXKIAvWDgdTlQ3GoJJUoy2/piCmPws4h0N8iqMC80Zsv0vp/9zoxyFWDiLfT/WOnyO/C8Wdi4qznvEMje27+4ahzPIaKwXGa7C+lx/j7Uoyfck4Q9ihpQVLkoJTjwaGsN1YFhlCzDxrBDu0sGBJUnCcv3JnHO8x9WzA95pasCQpOIcZwXYFPG8IsbOEjwxhu2YWLEkKzsFGsN0UFhtCDI0ygu0OsWBJUnB8PNX3RhqB4xprdahnwZIkC1bQnOmIpwl8YwjbNbNgSZIFK1ir+MAQYimf1wxhu6YWLEkKRs3EPoJqd2PYYggx5dzk9w60YElSMJy/+t4bRhBbrxvBdo0sWJIUDO8h/N57RhBbS5hjCIAzWJIUGGewvrOa6YYQY2ONAHAGS5KCPaIVH7LNECxYFixJUmbsawTugB3fxNiLGhYsSQpCQyMAvAIr7qaz3BC+/8ZbsCQp+/YxAqCAjw3BEU6EBhYsSQqCpwgBvmSlIcTcVCP4/pDKgiVJ2VaFOobgzjcRphmBBUuSguL8lQXLMbZgSZIyv7EVzm4kwXS2GgJegyVJFiwLljJoE7MMAdjbgiVJgWxsxVZmG0ICfGoEQF0LliRlXx0jABayxRASYJ4RfPedt2BJUrbVMgJ3vI6zBUuSZMHKvLlG4DhbsCRJmVPbCHBmw3FOVsHKs2BJUrY5g+WONzmcwQIoTw0LliRZsIKw0AgSYS0rDAEsWJKUfZ4iBFhqBAmxzAiAqhYsSco2Z7Dc7SbJt0ZgwZKkINQ0AguWI50w1SxYkpRtlYyANWwyhIRwBsuCJUmBqGgE7nQd64TxFKEkZV0FI2ClESSGdxFasCQpEM5gwUYjSAxPBgOUt2BJkgUr+zYbgQXLgiVJypxyPpTMna5lOnEq+LWXpOxy/sqdrmU6eZzBkqRsH8kagQXLsU7e996CJUnZ5QyWO91kcQYLnMGSpKwrMALwOrQkVQsjAAr8yEtSdm0zAqCyETjWibLVgiVJWd7QGgE+LsixTtyBlQVLkrK8oTUCd7qJ4gwWOIMlSRYsd7pyrDP/vbdgSVJ25XuZO85gOdZJ4wyWJGXdFiOgphEkRg0jALZYsCQp2zYYAfWMIDHqGwGwwYIlSdm23gjYizxDsGAl6VtvwZKkrB/LGgEVqGMICeFspQVLkoLZ1BqBu90EcQYLPEUoSRYsd7uySmf+W2/BkiQLVhAaGEEilLNKA85gSVIAVhsB0NgIEmE/18H67ltvwZKkbFthBBasxGhiBMBaNluwJCnbVhqBO16LdNK+8xYsSbJgueOVRdqCJUkRs8oI3PE6zhYsSVLGN7aitrfvJ8LBRmDBkqRgLDcCAFobQQIcbgTffectWJKUbV8bAQBHGEHsHcBehvDdd96CJUkWrGA4g2WJtmBJkjLmKyNw5+sYJ8o3FixJyr4NrDUE4HD3ObHnLOV3nMGSpKA2t6IahxhCzDmD9R1nsCTJghWgdkYQa3VoaQjff+MtWJKUfQuNAID2RhBrJ9oqANhswZKkYCwwAguW45sYi8i3YEmSBSs4h1HfECxYsTcfLFiSFNgGV+RxgiHEVkXaGsIPB1QWLEkKaIMroKMRxNaxVDMEC5YkWbBy4XQjcGxjz1OEkhSQb1hnCAAcwf6GEFNnGMF28yxYkhSMAuYYAgB5znPEVH2ONYTtZluwJCkoXxjBds5zxFNXG8V2W/nSgiVJgR7TCuhKRUOIoW5GsN2XbLFgSZIFK2i16GAIsVPBgrX7d92CJUlB8BThD841gtg5lb0NwYIlScH73Ah26EsFQ4iZfkawwywLliQFZwFrDGG7BnQyhFipyFmGsMMMC5YkBaeAmYaww3lGECtd2csQdphuwZKkHBzXCuhLJUOIEU8Q/mAliy1YkmTByo26roYVIzXoYwh7fs8tWJIUjOlGsJOrjCA2zqeWIez5PbdgSZIFK3jdaGQIMXGlEezEGSxJCth8lhvCDuW5whBioTXHG8JOJlmwJClYBUw2hJ1cSXlDiAFP9u76LZ9qwZKknB3bCjjAh6vEQDUuNoSdzGOFBUuSgvaxEeziZiOIvMupawiFf8ctWJIUFGewdnUaRxlCpJXnJkMo6jtuwZKkoHzOOkPYxS+MINL60MwQdjHZgiVJwdvGREPYRT8ONAQLcoxMsGBJUi6MM4JdVORnhhBZHWhnCLv4gq8tWJJkwQqDa2lgCBH1OyPYzYc7/x8LliQF5wMj2E0NTzNF1Ikus2HBkqSwWMxCQ9jNz9jPECLoL0ZgwZKkkG6CBVTlV4YQOR051RB2s/GHVdwtWJIUtPeNYA/X+ODnyLnNCPYwjs0WLEnKlbeNYA9V+IMhREp3TjKEPbyz6/+1YElSkKaw0hD2cAXHGkJkVOAfhmDBkqRw2eZJwkKU427yjCEifkYrQ9jDlt3vEbZgSVKwPElYmPb0NYRI2IvfG0IhJuz+ICwLliQF6x0jKNSdVDOECPgrexlCKgdOFixJCvpId7UhFKKRS45GwJFcZQiFesuCJUm5tZU3DaFQv6OlIYRaOe6nvDEUYiPvWrAkKddeM4JCVeYR90qhdrOPdy7Ce6y3YEmSBSus2nG1IYTWQfzREFL/TluwJClonzPXEIpwBwcYQkg9RA1DKMJoC5YkhcEYIyhCLe43hFD6EV0NoQjf7PoUQguWJOXKKCMoUk+uMYTQOZh7DaFIo8m3YElSODbImwyhSHdymCGESgUGUtMYijSisH9owZKk4K11PfdiVOMpKhlDiPzBuweLsZVXLViSFOpjXm13NH8xhNBoz28NoRjvFv4AdwuWJFmwwucWTjeEUKjHUy4uWqyXC//HFixJyoW5TDeEYpTjGQ42hhCMw0AOMoZiDbdgSVKYvGgExarLEKoaQ479mW6GUKxP+dyCJUlhMswISnA0DxlCTvX06qsSDS3qFyxYkpQbH7uee4ku5lpDyJnmDCDPGErwnAVLkiKzadYO99LFEHJiL16itjGUYC6TLFiSFDaeJCxZRYbS2hgCV4khHGoMJRpc9C9ZsCQpVz5kgSGUqBavsL8xBCqPRzjVGMp2kGTBkqRcKXAOKyUH8ALVjSFAt3GJIaRgLhMsWJIURk8bQUqOZRAVjSEg13jvYIqeocCCJUlhNL6oNXS0mx48QwVjCMA53GcIKRcsLFiSFMFNtHbSl0fcZ2Vdb57xwTgpmsInFixJCquBRpCyy7jHELKqM4OcJ8zUwZEFS5JyaTbjDSFl1/M3Q8iak3iRKsaQogILliSF2wAjSMNv+K+ri2dFJ16mmjGk7E3mW7AkKcyeYpMhpOGn/M99V8b1YCQ1jCENj5f0G/yQSlJuLeclQ0jL1Qz0SqGMOp/nPDmYltUlP+jKgiVJufaYEaTpAp6lsjFkyJUMdJWxND3LeguWJIXdaB+Zk7azeZO9jaHM8vgjD7kwQzYOiixYkpRr+V7oXgrteJeDjaFMKvEkt3rTQNpm8qEFS5Ki4EG2GULaDuUjOhhDqdXlVZ85WMrvawosWJKUe/MZZQilUI/RnGMMpdKUsXQyhlJYT38LliRFxf+MoFSqMph7vEQ7bWcwnhbGUCrPssKCJUlR8QrzDKFU8riB19jHINJI7NeMoK5BZPdgyIIlSWGQz8OGUGonM4ETjCEltRjG3937l9pkPrJgSVKUPOqK7mVwAG/yU++HK9FxfMxZxlAG96X6Gy1YkhQOXzPIEMqgCv9lFA0Nopg9/o28S1ODKIOlPGXBkqSo+bcRlFFXptDDGAp1IG9wN5UMokz+xwYLliRFzTTeNoQy2puXuJdqBrGb85nCycZQRpt5IPXfbMGSpPC42wjKLI+f8QldDGKHhgzlGeoYRJkNYokFS5Ki6CW+MIQMaMJoBlPfIMjjaj6lr0FkxH/S+c0WLEkKj3zuMYQMOZdP6JfwDFrwLg9Syw9DRrzBBAuWJEXVoyw1hAzZh2d5nSMS+u5r8Ecm0d6PQcb8Pb3fbsGSpDBZz38NIYNOZRL9aZCwd12OS5nNrVT2A5AxUxhjwZKkKPsvaw0ho2XjEmbyswQ9r/BkJvKkDw/KsL9RYMGSpChb7kNzMm4v7mUWV1Mh9u/0CAbzFkc65Bk2h2HpN3tJUrjcxWZDyLiDeJBpnBfj/V4bXmQy5zrUWfAPtlqwJCnqFvCEIWTFYQxiMufEcN/XhsFMopdPYwzPN9KCJUnh81fnsLKmNUOYzY1Uj8076sBwJnGu5Spr/l6aB7FbsJTcz0h5B1ehNZ8nDSGLmnA38/hz5O8urMjFTOZdeliusmghj5bmX3NIVJRqHM9JnMQJMX6q1xLe4V3eZnq6d4dIWdeYzxN031uubGQYD/NOJLcATbiCK9jPQcy667nPgqVMqMEJdKA9HRO0gsoaxjGGsXzkaRmFyMNcaQiBmMWjPM43kXm9lTidSzjbWfiADsSbssGCpbKoysmczkm0SfCXdg3v8xajmOzHQSHQmE9dKDIwmxnBIF5mfahfZR7tOI/zE7dwai5dxwOlHSypMV3pTDdqGsV23/AqwxnNKqNQTt3DDYYQqA28zhCGsS6Er60V53IxTR2kQM3lsNKe2bBgJVklOtKd7hxmFEUc0b7HSF5hhlEoR/ZhNjWMIXCrGckoRvFVKF5NVTrRjZ40cWBy4GKeKu2/asFKprr0oRed3XSnZB4jeY432WYUCtyf+T9DyJECJjGKUXzIlhy9guZ04wxOpqqDkSNTOYp8C5ZSU4denEtXKhlFmpbzMkMYlbNNrZKpJrO93ibH1jOJibzHGywL5O+rwKG0pwMnc6Dh51hPRpT+X7ZgJUdtelutyuxrhjGEd53NUmB+wb8MIRTymc5EpjGVqVm447AaLWlDa46kbYyXxomWsXQoy79uwUqCWvSiH129HyljvmIYg3mv9FPHUsoqMZ1mxhC6Q62pfMY85jKPuawo1Z9RhcY0pgmNOZgjaOqiC6Er1Ccw3oKlosf3ZK6gr8dDWfElj/MEXxqEsqw3LxhCqK1iIctYxjKW8i1rWUU+W1gLrKEGeVSiOlCT6tSjHvWoz940oKF74FB7kh+VdQesuNqPS7jSI9+sH+N8QH8GhnztHEXdKE43BClAazmUxRYs7e67VX7PooJRBHb8+iwDeM8glCUtmeL3WQrQb/lbWf8IC1b8NsRXcTH1DSIHJvMYA1hpEMqC//JTQ5ACMpeWbLRg6XvlOJUbOdMxzamNDOEOphuEMqwus6hnDFIg+vJc2f8Qd8bxUJMLuIkWBhESY7mH51zKQRl1A/cYghSANzk1E3+MBSv6mnIVV1PXIEJmNo/woCcMlTEVmMThxiBl2TaOYYoFSx24gbNdPSW0VjOIO/nMIJQRpzHGEKQs+x8/ycwfZMGKqnKcya0cYxChl88r3MrHBqEMGMGZhiBl9bC4OV9najet6KnAJUznJetVRKpwD8bzHEcbhcrsJjYYgpRFv89UvcKTS5FTkYsZxJUuxBApebTgGrowj7mGoTJYzjY6G4OUJeP4CQWZ2/ArOipzGb+nkUFE2FjuYLgxqNQqMM7ZUCkrNnN0JhfZ8RRhVFTjFubxoPUq4trzEmN97IlKbStXs9UYpCz4e2bXMPQUYRSU4xxe5FxqGEUsNOJiujKL+UahUlhCTdobg5Rhn3FxZg9ePEUYfp25k9bGEENj+DnTjEFpq8pUH+MuZVQ+J2f6ebKeIgy3drzDa9ar2FbnyfRnP4NQmjZwVeYuxJUE3J/peuUpwjBryX3cyUEGEWN5tOEn1GJC2R8rqkSZx4EcZQxShiymL5syv4FXGB3IbVzk/GJiLON2/stmg1DK6jKDfY1ByoiejMj8H+ouPHwqciPTucSxSZB6/JtP6G4QStkKbjAEKSMGZaNeOYMVPj24m6bGkFAv8HOXIlXKhnG2IUhltJTWmVu93YIVVk25mx7GkGgbuJfbWGsQSkF9ptLQGKQy6cOL2fmDPQ0VFtX4I59YrxKvKr9mJpcahFLwLZd5N6FUJg9kq155F2FY9GQEfahgEAJqcRYnMZGlRqESzKE27YxBKqWZnMOWbP3hniLMvYN40EenaA+b+Ru3e2ehSlCZcbQxBqlUW9kTmJS9P95ThLmVx9VMs16pEJW4lY853iBUrE1cyAZjkErhd9msV54izK2mDOVnVDYIFaEBV7A/bzmPpWIsZZVLfEhpe5trs3sNowUrVyrwSwZziEGoWHkcwwVMZ45RqEjjOZpDjUFKwwq6sirbm2/lwhE8yrHGoBQVMJCbWG4QKsLeTHVddykN5zE423+F12AFrwq3M9F6pbQOhC5hqot4qEhL+bELNkgpezj79cpThME7nFH0tdgqbbW4kAN4I3u3FCvSZlGXE4xBSsFM+gaxJfUUYZDyuIq7qGYQKrW5XMz7xqBCVGQMJxmDVIK1HM+MIP4iZ1KC04CXeNB6pTJpwtv80ZlnFWIL/VhkDFKxCrg8mHplwQrO6Uz2GhplQAVu5V0ONgjt4WvOdUkPqVh3MDSov8oj4SBU4d/cS02DUIY04kcsYJpBaDcLWcUZxiAV4XWuCO52EAtW9rViFL282k0ZLu1n04rX2GgU2sVHNOZIY5AKMZ/TWRvcX+duP9uu4R7XaleWzKKv81jaTTXe9+mE0h420pEJQf6FXoOVTVV4mP9Zr5Q1h/ARVxiDdrGe3iwzBmk31wdbryxY2XQQ73ClMSjLJf5RHqSSQWgnX3IB24xB2smDPBr0X+k1WNnSg1dpagwKwDF0ZzQrDUI7zAFOMQZpu484L/iDDgtWdlK9nfuoahAKyH5cxCQfCK2dvEtLWhmDBCykCytyUQWUafV5nsu8fUCBqs4lVOUNn0en7QoYzqk0Mggl3hq6MCsXf7E1INOO4zn2NwblxHAuZrUxaMfB3gc0MwYl2lZ68Gpu/movcs+sc3jTeqWc6clYGhuDtvuWbiw1BiXaDbmqVxaszLqRZ33WoHLqcCb4wF/t8AVnuxitEux2HsjdX+41WJlSmcf4tadclXPVuJAvmWoQAmA+n9PXLZMSaTA/zeV1qRaszKjHcHobg0KhAn284F07zGALpxmDEuc9zmZLLl+ABSsTDuF1jjEGhUYeHWjFy7nduChEO5oGtDUGJcoXdM31LT9OHJddFwZTxxgUOuPow1fGIKA8L9DDGJQYy2iXm6UZduZF7mV1Fa9YrxRKx/MhLYxBwDYuCvo5bFLOrOXM3NcrC1ZZ/ZoHqWAMCqmDeI92xiBgNV2YZAxKgA30YlwYXogFq/Ty+Cd/9ySrQm0vXqObMQhYSTdmGoNibgv9eDMcL8WCVVoVeIRbjEGhV50XOd8YBHxDV+Yag2JsG5cwIiwvxoJVOtV4kSuMQZFQiae52RjEdw+9XWwMiqkCruHZ8Lwcl2kojbq84royipA8TqcqYwxCrGAE/ahhEIphvfopD4XpBVmw0teQ1zjOGBQxHWjAKBcfFct4jX5UNQjFzP/j7rAd2So9TRnj43QVUU9zGVuNQbRjtLNYipU/c2vYXpIFKz0H8Zb1ShE2lAusWAJOZYSzWIqNe7kxfC/Ki9zT0ZR3rVeKtHN4ypXbBLxBb9YZg2LhLm4K48tyBit1jXnTeqUYGMqFPqVQQAdGUNsYFHF38JtwvjALVqoO4Q0OMAbFwjAusGIJOJpXqW8MirA/8JewvjQLVqr16k32NwZZsRQzLRjDfsagSCrgZu4J78uzYFmvlEzPcb4VS0ATXqeJMShytnE1j4X5BVqwrFeyYinZGjOGpsagSNnMxQwJ90u0YJXkAN7jIGNQLD3DxeQbg9iX0bQ2BkXGJs7nhbC/SFdyL1593qCZMSimWtOAl41BrOVZTnGmXhGxjl68Ev6XacEqTk1eo40xKMbaksdbxiA2MJQOHGgQCr1lnME7UXihFqyiVeIFOhqDYq4Tq/nQGMRGnqYJRxiEQm0OpzE5Gi/VglV0Ms/Q0xiUAF2ZH5UNlrJqG88DnQxCofUhnZkfnRqhwuTxIBcbgxLyae/Ox8wyCAFvMZ/u7hkUSsPow6rovFyfRVi4O7jSEJQYFRnCScYgAB6ne5R2YkqMe+nHhmgdu2pPv+IOQ1DCrORkphqDADiCETQyBoXGVq7nwai9aAvWnvoy2Jk9JdBijmehMQiAhgznGGNQKKzl/CguKGPB2t0xvEM1Y1AifcxJrDMGAVCdQfQwBuXcEnrwcRRfuJcy7uog3qCuMSihGnIYQykwCAFbGEJdjjcI5dRETuOzaL50C9bOavKaT+RSorWgMq8bgwDIZySzOIOKRqEcGUBflkX1xVuwds5isHdSKfE68BUTjUHbTeNlujqvrxzYxC38JsoPpPcarB/8h+sNQWILZziLpZ3U4kn6GIMCtYhzov6MCe+W+95V1isJgIo8Rytj0A6rOZvfkG8QCsw7HBv9R3g5g/WdbozwdKm0w2xOiO6VD8qKnvSnjjEo6wr4N/+PrdF/IxYsgMZMoJ4xSDt5ndPZZgzaSTOeo7UxKKvWcgVD4vFWnLWBKrzqvYPSbg4mjzeNQTtZzuMcwJEGoaz5nK68FZc3Y8GChznDEKQ9nMRUPjUG7WQrLzKXLlQyCmXBAHrH6WkSniK8nv/4qZYKtZK2zDYG7aYJT9HOGJRRq7iOp+P1lpJesE7gbY/FpCJNo50Pz9EeKvB7fu8ZEGXMB1zE3Li9qWR/QfbhdRfQk4r9jjRhmDFoN/m8xbucRi2jUJlt5S/8iOXxe2NJLlgVGO4dMVIJWrOMj4xBe5jHYxzoNlRlNJdeDIjnE1CTvNDoHZzsZ1sq0Z10NAQVYhUXcRlrDUKlNoAjeD+uby6512Cdwcte4i+lZCFt4jiBr4xozEDaG4PStpLreCbObzCppwgb8irV/XxLKalF07gs/acs7CYHsIH2VDAKpeF5evBBvN9iMgtWHoNcLE9KQ0sWMMkYVKh83mMQrTjYKJSSr/gpv2VN/KtGEt3CP/2ES2lZxzF8ZgwqZm9yCXexl0GoWAUM5OZkPOk0iQXrKD507SspbR/Tjs3GoGLsy384xxhUpC+4hteT8maTd4qwGqPZx0+5lLaGVGaMMagYaxnCx3R0fSwVYiv/5dwkzYMnr2Ddx+l+zqVSacf7zDEGFetzHqMabb1LW7uYQm8eY0uS3nLSvgJn8Zyfc6nUFtOGb41BJerE/zjUGATAWv7I3WxL2ttO1gzWfoykmp91qdRq0pxnjUElmseDrOB4qhhFwuXTnz6Mjuda7RasH/TnaD/tUpkcxiymGYNS2LF+yMNU5dhEPzEk6cZzHv9J6mr/STpFeDED/LRLZbaMVnxtDEpRC+6kmzEk0CJ+G9enDKYmOTNY9XnJtdulDKjGgQw1BqXoW57iY45zhaxE2cCdnMf4ZIeQnIL1JG39zEsZ0YpPmGkMStnnPMAyTqSyUSTCCHow1FXzknKK8GyG+ZmXMuYrWvn4Z6WpIbdzqVdkxdwEbuY9Y4CkzGDV4xVqONhSxtSgIS8Yg9KylhcZSgNaukZWTM3j11zHlwbxnWQcS9zt2u1Shl1Kb0NQ2mbQj3a8YRCxs5BrOISHyDeK7yXhOOJMRjjQUsYt4HBWG4NK5XRu41hjiIlvuIP72WgQu4r/KcKajPS5WFIW1KYuLxuDSuULHmECzdnPKCJfrv7IJbzDVqPYXfxnsP7JLQ6zlBX5tOMjY1AZdOY2jjeGiPqW+7jTeeykFqwWTKGiwyxlyThO9JoLlVF3fsXJxhAxC7mTB1lvEEWL+ynCAT5uVMqiA1jAJGNQmcziCV6iGq1cwiEivuDPXMZ7bDGK4sR7ButcBjvEUlYt41CWGYMyoDHXci21DSLUJnE3T7HNIJJdsKoxg4McYinL7uenhqAMqcXl3MIBBhFC+bzCPYwxCAsW/I3fOMBSAJvdE5L+zDFlVCXO55ccbhAhsoZnuJPPDMKCBdCcaVRygKUAfEB7CoxBGd03deMGunpVVgh8xgM8xhqDsGB97xXOcHilgFzOE4agjNufq/gJDQwiR7Yxknt43cMnC9bO+vC8gysF5huas8oYlAWV6cu1dDSIgH3JwzzKVwZhwdpVBabSwsGVAnQ7vzMEZU1zLuRH3rYUiE28xABGuja7Basw1/KAQxsJa1nGN6wC1rEZWEkBlagO1KAiFahHPepR2aAiYD2HsNgYlEXl6cbl9PTq2iyawOM8zUqDsGAVrjqz2dehDaElzGMu85jHPL5iGcvYlNK/V5N67M1+NKHx9v/UNMwQeoSrDEFZV49zuZD2Xv6eYXN5mmeYbhAWrOL8gT85sKGxik+YzgwmMpm1GftT69KKY2hJK46mqiGHxDbauHlWQA6gL+fS3iAyYDlDGcBYL2W3YJWkAbOd3wjBrnYqY3mf9/kyy39TRVrTnhPp4NKEIfAifQxBAWpJX/rSxiBK6WteYChvebWVBSs1/+F6hzVn8pnIKN7lwxysmdKIjnTiDItWTnXkPUNQwJpxDn051iDSsIjnGMZ7PvLGgpXOF20GFR3WHPiW0YzkVZbm/JW05gy60cHPQU6870kb5ciBnElPTqGKURSjgEm8zAgmkG8YFqz0PEs/BzVgixnKYD4I2de1Jj04j9Pd2AbubNegUw5VpzNn0p39jWI363iDEbzMIqOwYJVGW8bF+umKYfM1wxjMuyE+EqpFb/rR1du6A/Qprb2iQznXii504WSqJz6JfD7mNUbzPpv9WFiwSm8k3RzSQGzlZR5mVETO3+/FJVzpo2MDcxn9DUGhUIn2nMbJtE3kanozeYc3eJ1lfhAsWGV1NBOcvwrAIgbyQNbvDsy8Y7iaC6nhAGbdLFp46axCpSJH0JkOnEStBLzbOYxhLG+ywIG3YGXKi/RyQLOqgDHcyegIXxxZm8u4iSYOZZZdwCBDUCiLVhtO4HhOoFns3tsyxjGODxnnU0EtWJnWhknOX2XRZgbxb6bG4J2U52xu4TiHNIumc4T3KCnU6nM8R3MkR0X8gGsFk5jEZD7icwfVgpUtQzjH4cyS1TzAvTF7zlxHbqGnlTxrzmGYISgS6nAUR9GKw2kRkUWqtzCb6UxnCpOY5wBasLKtJdN8MlVWrOM//CumF0kew5/p7hBnxWSO9sEbipyDaMHhHEpTmnFAqPaPK5jNbGYxnRl87v2AFqwgPcWFDmbGbeB//J1vYv0e2/EXTnOos6AXww1BEVaFpjTjYA6iEY1oxL6B/u2rWcCXLGQBc5jNbJY7IBas3GjODMo7mBm1jUf5U8xOCxalE/+grUOeYeO9zk2xUpkDaMjeNKQBe9OQ+tShDnXKeFpxEytYyUqWsZSv+Hr7fy/wQnULVlg8zo8cyox6i5uYkqD3W45LuZ2GDnxGdeNVQ1DslacOtalNBWpTiepUozKQR51dftc6NgMFrGQLa9nARtawhpVsMEALVpg1ZhYVHMqMmcsvE3mBcg1+y80+WieD3qOjIUhKqjhcGH699SpjNvJ/tEzo/V9r+S2teNkPQcZ08MSrpOSK/pVLNRnorEOGjKUHzyX6OXIreJoZPr8sY6rxnCFISqboz2BdTm2HMQNWcxMnMdMgGMKhPOQSAxnRjwMMQVIyRX0Gqxz9qecwltnLnMFrlortNjKCDzjZ6p6B7csG3jAGSYqeXhT4U8afDdzoiuaFqMUAPx1l/llGNT9KkpJ5hBlt9/vg3jL6hG68ZAyF2MTzzKCLV/iVSVW+5GNjkJQ80Z65OJypzr2UQQH/4VdsMohiHMQAFxsok+m09uSzpOSJ9kXuN1mvymA53bnRelWCLzmVf1sQyqCVjyKSlERRLih7M9/TN6U2mb7MMYYU9eZJL3kvtZfpYQiSkibKM1hXWq9KrT8nWq/S8CLt+dwYSukMmhqCJAtWVORxhcNXKlu4nst8AlaaptPWmwFKvZXxuyrJghUZJ9PM4SuFtfThPmMohdX04U/GUCqXxeCZEZKUkIL1YwevFBZzEq8YQykV8EeuTvSjhEprf7oZgqRkiepF7rVZ7AKGaZtKDxYYQxmdzmBqGUOanudsQ5CUJFGdwbrQepW2UbS3XmXAq5zKN8aQph7sYwiSLFjhd6VDl6bh9GGtMWTERE5ioTGkpSKXGoKkJInmKcIjmOLQpeUZLvXaoYw6iDHeZpGWzznMBVslJUc0Z7CucuDS8jAXW68y7Es68okxpKE57Q1BkgUrzKpwoQOXhnu4hnxjyLivOI2pxpAG7/yVZMEKtV7s5cCl7AFu9sRMlnxDFz4zhpSdS3VDkGTBCq/zHbaUDeB661VWK9ZpPnIoZdV9JqEkC1Z41XTJwpQ9xxWeHMyyRZzCl8aQovOMQJIFK6x6U9VhS8kIzvfS9gDMp5vrYqXoDGoagiQLVjh5gjA1EziPLcYQiE/pzjpjSEEVehmCJAtWGNWhi4OWgrn0YL0xBGYi57HNGFLgSUJJFqxQOptKDlqJlnMGXxtDoF7mp4aQgtO9B1hSMpSP2Ov9O00dtBJspjcTjCFwE9mL442hxC3Op0w2BknxF60ZrPqc4pCV6EreMISc+DkjDKFE/YxAkgUrbPpS0SErwb0MMIQc2caFfGoMJehMPUOQZMEKl3McsBK8xy2GkENr6Of9hCWoSB9DkGTBCpNanOSAFesrzndphhybxpWGUIIzjUCSBStMungHYbG20I9FxpBzg7jHEEr4Jlc2BEkWrPDo7nAV63e8awih8EvGG0IxajgXLcmCFR55PoOwWO9wpyGExBYuYI0xFOMMI5BkwQqLo9nP4SrSSi5xJfEQ+YKbDaEYXoUlyYLlJjkSrmW+IYTKozxrCEVqziGGIMmCFQ6eVCja4+7MQ+g6FhqCB0ySLFjhtjfHOVhFWMLPDSGElnO1IXjAJMmCFfbNcTkHqwjXsdIQQmkkgwyhCCdT0xAkWbA83g2vwbxgCKF1I8sMoVCVOc0QJFmwci2PUx2qQi3nBkMIsW/4hSEUwe+0JAtWzrWggUNVqFv42hBC7UlGG0KhOhmBJAtWrp3sQBXqA54whND7KZsMoRCHU88QJFmwLFjhk89NFBhD6M3mPkMoRB4dDEGSBSu3OjpQhejPR4YQCX/iK0PwwEmSBStsmvuQnEKs5XeGEBGr+aMhWLAkWbDcDEfBX1lsCJHxMBMNYQ9tqGMIkixYFqwwWcI9hhAh+fzeEPZQnvaGIMmClTtegbWn29hgCJEyincMYQ8nGYGkuMoL/Ss8mC8cpt3Mp7m3/kdORyvWHsZxgiFIiqfwz2A5f7WnP1uvIuhd3jSE3RxDdUOQZMHKjbYO0m5m098QIsnrsHZXgTaGIMmClRtHO0i7+StbDCGS3meMIezmWCOQZMHKhfIe4e5mMU8bQmT90wh2c4wRSLJg5UJLqjlIu7iXzYYQWaOZbAgWLEkWLDe/YbOORwwh0u4ygl0c5mXukixYFqzce5hlhhBpz7DAEHZSniMNQZIFK3he4r6zbdxrCBG3hf8aggdRkixYuT669RL3nY1kriFE3qNsNAQLliQLVi618PqMXTxsBDGwjBcMwYIlyYLlpjcslvCKIViUY6cFNQxBkgUrWEc4QDt5lK2GEAtvMtsQdtoGHW4IkixYwTrMAdohn0cNISYKHMtdHGoEkixYFqxceYN5hhAbT7LNEPyeS7Jg5UYVDnKAdhhkBDGyhLcNYQdnsCRZsALVnPIO0HZbvPMsZgYbgQVLkgXLzW6uveYK7jEzzFsWdmhGBUOQZMEKjldm/MD5jrj5ljcMYbtKNDEESRas4DiD9b3NvGQIsfOsEXgwJcmCZcHKpTdZYQix8xL5hmDBkmTBClqeBWuHkUYQQ98ywRA8mJJkwQra/tR0eCxYjqsFS5IsWJl0sIOz3Rw+N4RYGmUE2zUzAkkWrKAc6OBs5zxHXI138Y3tGlDJECRZsIKxn4OznfMccbWN0YawfTvk912SBSsgjRyc7Tvhdw0htt40gu0OMAJJFiw3uEGaxipDiK2xRuABlSQLlhtcd8HKrJleheUBlSQLlhtcC5Yyq4APDAGA/Y1AkgUrCJXY28GxYDm+ieGMtSQLViD2C/VDfIKziPmGYMFKAGesJVmwPJ4NkA9TibuPfSKhBUuSBcvNbdCmGkHMrWOuIQD7UtEQJFmwsm8fhwaAT4zAEp2QLZFXXUqyYAVgL4cGgClGYMFKiLpGIMmC5cY2GBuYbQixN80I/M5LsmAFpbZDA8xgmyHEnjNYFixJFqzAeIoQ4DMjSIC5bDUEoI4RSLJgeTQbjHlGkABbWWgIfuclWbDc2FqwlFku1OB3XpIFy42tO145zn7nJSmaBauOQ4MzWI6zBUuSLFgZVJUqDg35LDCERHAGy4IlyYIViDoODLCUTYaQCIuMwIIlyYIVhFoODLDMCBzpBPFbL8mClXWVHRhgqREkxLdGAD7sWZIFy01tMJzXsGAlSSUjkGTBclPrbleZs5k1huC3XpIFy01tMJzBcqwtWJJkwcogTxECrDKCxFhhBBYsSRYsN7XBcJGG5NhsBB5WSbJguam1YMmx9rBKkiJXsNzUgrMajnWyVCTPECRZsLK9qZU73SRxBgvyqGAIkixY2eUMljtdxzp5/N5LsmBlmUeyAFuMIDGcrbRgSbJgBaDAgbFmJoonxQG2GYEkC5YbWo/n5Vj7vZckC1bk+MhrxzpZthqBJAuWBSv7nNWwYCWL33tJFiyPZC1YcqwtWJIUrYLlhhac1bBgJa1eeXOLJAtWlnnTOkAtI3CsE8RlSSRZsLJugwMD1DOCxNjbCFhvBJIsWBYsC5YypwK1DcGCJcmC5aY2GPWNIDFV2scc+62XZMFyU2vBUoYLlvzWS7Jgual1tyurdMZ5YYAkC5YFKxB7U94QEmEfI/BbL8mCFYRVrogDVKKhISRCEyMAVhqBJAtWtm1lnUPjjjcxGhuBBUuSBcuNrQVLjrPfeUmyYEVWYyNwnC1YkmTBcmPrjlfpyuNAQ/A7L8mC5cY2OM2MIAH2p5oh+J2XZMEKxjKHBmjtCt+JGGUBLDcCSRas7PvaoQHq0MgQYq+NEQDwlRFIsmBl3zcODQBHGEHsOYPlQZUkC5YbWwuWHOMsKGCpIUiyYFmwguLsRtxVorkhACvYbAiSLFgWrKAcZQQx14pKhoAXBUiyYFmwAtWc+oYQaycagd94SRasII9nNzk4QB7tDCHWOhgBAPONQJIFKwgFLHRwAGhvBI5vAiwwAkkWLDe47oCVGQe60pnfd0kWLDe4udCWKoZgfY49TxFKsmBZsAJVmbaGEFsnGcF2XhIgyYJlwQpYNyOIrdONYDtnsCRZsAIy18GxYMXcYTQxBABWsNIQJFmwgjHbwdnuKBoaQiydYQTbzTICSRasoHzJFocHgDy6GkIsOTfp4ZQkC1bgtvKlw7OdMx1xVJWOhrDdF0YgyYIVHE8bfO90KhtC7HSlqiFYsCRZsNzo5k4dTxLG0PlGsIOnCCVZsAL0ucOzQz8jiJlq9DAEv+uSLFi5MMPh2aG3p5Ni5kxqGMJ237DUECRZsCxYuVDTO85i5jwj8JsuyYKVG0tY7gC5Q46lGt4ZasGSZMFywxsGvahrCLHRj2qGsMN0I5BkwbJg5UpVLjaE2LjKCCxYkixYufOJA+ROOYYO5wRD8EBKkgUrdyY7QDtpzfGGYFWOnYXeQyjJghW0SeQ7RO6YY6YyFxrCLt9ySbJgBWytKzzv4nzqGELk9aO+IexkshFIsmB5dJtb1bnGECLvZiPYxcdGIMmCZcHKtRuoZAiR1oWjDMHvuCQLlke34bKfjwiOuF8YwS5WMN8QJFmwgjfey9x380vyDCGyWtPVEHYxjgJDkGTBCt5KPneQdnE4XQwhsm6xHu9RsCTJgpUTHzpIu/mDEURUY0/w+v2WZMHyCDes2nuaKaL+7C0KuyngI0OQZMGyYIXFXz3RFEHNucAQdvMpyw1BkgUrN6axzmHazbH0MITI+RMVDMHDJ0kWrLDY6lUahfhrBEZOO2tFP0PYw3tGIMmClTvvOEx7aM15hhApf7cS+92WlCRRuJanE286UHtYyGGePI2M0xhjCHtYwn6GICmuonBU/SEbHag9HMAvDSEiKnC3IRTibSOQZMHKpY2Md6AK8SsOMoRIuI7DDaEQniCUZMHySDeEqvI3Q4iAetxqCBYsSRasMHrDgSrU+ZxkCKF3G3sZQiG+YoYhSLJg5dZYL+cuVB4PU8UYQu0ErjaEQr3mY54lWbBybbMnE4rQnN8bQohV5lGXZyiyYEmSBcuNcWj9mqMMIbR+R0tDKFSBC1dIireoPNPucKY5WEUYTzu2GUMoP7UTfbxzEabSxhAkxVlUZrCms9jBKkJbfmEIIVSRx6xXRXJOWpIFKxQKGOlgFek2jjOE0LmVtoZQJL/PkmIuLzKvtA/PO1xFms1RrDWGEOnAW5Q3hiKsZm82G4OkOIvOHU6v+cCcYjTjn4YQIrUZaL0qxqvWK0kWrLBYx1sOVzGupbchhMYDPsaoWC8bgSQLVniMcLiK9ag79ZC4igsMoRj5XoElKf7yIvRaD+RLB6xYkzmRDcaQY0cxlqrGUIwPONEQJMVdlGaw5jPJASvWkTxoCDlWj+esVyV4wQgkxV+0LsStz6kOWbHasISJxpDDA5bnOcYYSnAdyw1BUvx3CFHynANWons53hBy5m90NYQSTGG2IUiyYIXLTGY4ZCWozAte7J4jl/MrQyjRUCOQZMEKn2EOWYn2ZSR1jSFwnfifIfgdliQLVny1YCgVjSFQrXjBJw+mYAYzDUGSBSt8pniSMCWn8mSkluCIuoa8TG1jSMGzRiApGaL3OI96nOKwpaA1FXjDGAJRm9EcZgwpudo7CCUlQ7nIveKnKXDYUvI7fmMIAajGSxxlDCkZ5x2EkixYYfUFHzlsKfobvzCELKvEME4yhhQ9YwSSkqJ8BF9zNc5w4FLUhcV8bAxZU5FhnGkMKcrnStYYg6RkKBfB1/wsWx24FOXxABcaQ5ZUYCA9jSFlb7DYECRZsMLra1514FJWnv782BiyoBLP0s8Y0vCEEUhK0u43ija5Y0urRPdkNR8aREZV40V6GEMaVnEVW4xBUnJ2vlE0nKUOXRryuJNbjSGDajDcpw6maRDrDUFSckRzBmsb+3OCg5eWTlR2XawM2ZvXaG8MabqeRYYgKTmiutp3a6Y6eGkbwqVsNIYyasorNDeGNH3mUqySkqVcRF/3NCY6eGk718dAl1kHxlmvSuFhI5BkwYqG/zl4pdCJjzjEGErtHEZTzxjSton+hiDJghUNz7DK4SuFZrzLicZQCnn8nsFUNYhSGOJtKZKSpnxkX/kW9uN4B7AUanAZmxlrEGmpyVP8NLLXLObaT1hgCJKSdlQeXS2Y7g6v1J7iam+bT9mhPEdLYyilqbQxBElJUy7Cr30m7ziApXYR73OwMaSkNx9Zr8rA6yUlWbAi5j4HsAzaMIFzjKEEVfkvL1DLIEptNQMNQZIFK1qeY65DWAZ1GUJ/ahhEkVrxIT81hjJ5lDWGIMmCFS3bPPlQZpcwzVXJC5XH1XzEEQZRxu/ofw1BkgUreh5mnYNYRo15k99T0SB2cQAjeZBqBlFGLzLHECQlUfmIv/6N7E9bh7HMn4JT6cNEnxW3XR5X8wKtDCIDrma+IUhK5q4k6g5lpos1ZMQ27uH/XLqBFjzsSdMMmcixhiApmcpF/h18xksOY0aU5+d8QtdEZ1CZPzDJepUx/zICSUkVh7mf4xjnQGbQGG5gZiLfeU/uoqkfgIyZw6FsNQZJyVQuBu/hIxcczajOTOEeaifsXR/GK7xkvcqof1qvJCnaulPgT4Z/lnBF5G+BSNXe3McWxzzDP19RxU2TJGewou0VJjmUGbYvjzKLq2Nfsvbij8zmOio45Bl2DxsNQVJyxWX3uYa+DmbG1aUnZ/EVn8X0/dXiNwzidCo71Bm3iostWJIUh6L4qSdlsvYzkbNjMtf5g734Pcsc26z9/NmNkqRki88KUpfQ3+HMojncyyMxWTe/MddybeIu4w/Sapqw3BgkKR5zWJ85b5Dln6X8iQYR/5y05Vm2OpZZ/vmLGyRJzmDFx6U86YBm3WZeZACvsC1yr7wmZ3EJnR3CrFtLE741BkkWrPjMYU3nUIc0EAt5ivsj9JS5Y7iaC6nhwAXiNv7PECRZsOLkIgY6pIHZymie5UVWhfpVNuc8zvPBzQFaSVOvv5KkeBWsckzkSAc1UJt4jSG8wOrQvbIDOYtzfa5g4H7L3wxBkvJi9n56MNxBzYENvMVIRjErBK+lAidyBt2s2jnxFc1icq+pJFmwdvGecxY5NJtRjOK9HJ02PJhT6UZnF2DIoZ/xX0OQpDgWrA6867Dm3BzG8h5jmR7A31Wew2hPB07iIIPPsXkcxiZjkKQ4FiwYwZkObEgsZgpTmco0PmVLRv/k2rSmNW1oTRuqG3RIXOJtJpIU34J1KNOo6NCGzGY+ZQ5zmcdc5jKPtWn/CfvQhMbb/9Pc2aoQGkc7CoxBkuJasOAubnJoQ24dy/iWpSxjGetZx2YKWLn91ypSA6hBRepSn3rUpx71LM0hV8CJfGgMkhTnglWHz9nbwZUCNIBLDUGSvlc+lu9qI2vo4eBKgVlP35AvOStJgSoX0/f1MFMdXCkwt0fowUmSFIC82L6zU3jD4ZUCsYDDWG8MkvSD8rF9Z/NoQwsHWArAVUwxBEnaWV6M39vBTKeKQyxl2Vg6ujyDJO2qfIzf2wpq0MEhlrIqn3NYbAyStKu8WL+7GnxOQwdZyqKHudoQJGl35WP97jazhL4OspQ139LXy9slKWkFC6ZxNIc6zFKWXMsHhiBJe8qL/Ts8kE+o6UBLWfAGnb28XZIKUz7273AVaznDgZYybj1nsMIYJKkw5RLwHu9jrAMtZdzvmGMIklS4vES8y8OY5IpYUkaNpx3bjEGSClc+Ee/yWyrSycGWMmYrvV39SpKKVi4h7/N2pjvYUsb8nUmGIElFy0vMOz2esQmZr5Oy7XPasNEYJKloyakci6jP8Q64VGYFnMcsY5Ck4uQl6L3WZDIHO+RSGd3H9YYgSRasH7RlLBUddKkMZnKsD8eRpJIk66qkxZT3bkKpDDZxBguMQZJKUi5h7/c23nfQpVL7LZMNQZJKlpe4d9yEydRy4KVSeI1u5BuDJJUseQsXrGQxZznwUtq+pRurjUGSLFiFm8KhtHbopTT9iHGGIEmpyUvku67NFA5y8KU0PMi1hiBJFqzideAt13WXUjabo1hrDJKUqqSWjPlUpqPDL6VkCz2YawySlLq8xL7zirzFiX4ApBT8nLsMQZIsWKnZl4ns50dAKsHz9KXAGCTJgpWqE3mTSn4IpGJ8yvEuziBJ6Ur2hd4LWEM3PwRSkdbQhUXGIEkWrPSMowlH+jGQClXAhbxrDJKUvnKJT+AnfOzHQCrUX3nOECSpNPKMgMZMoJ4xSLsZQze2GYMklYYzWDCPC92NSLv5kgv8XkhSabmaOcAXlKOTMUg7bKQbXxiDJFmwyuYd2nKIMUjbXclIQ5Ck0vMU4XfyOZ+pxiAB8A+eNARJKgsvcv/B/nzIAcagxBvKeeQbgyRZsDLlaN6mhjEo0cbTifXGIEll4ynCnX1MP7YagxJsDj2sV5JUdl7kvqvZfEVPY1BCLeM05huDJFmwMu9janKiMSiBNtObCcYgSRas7HiN5rQ2BiVMAZfzkjFIUmZ4DVZhO5of874xKGF+y0BDkKRM8S7CwtXnfRceVYI8ypWGIEkWrOw7hHfY1xiUCC9yjvfPSpIFKxiH8jb7GINibww92WgMkmTBCsqRvEFdY1CsfUBX1hqDJFmwgtSO0a7trhibzKmsMAZJyjTvIizp6L6PJ08UW9PobL2SpGxwBqtkp/MilY1BsTObk1hiDJKUDS40WrIvmEFf5/oUMws4lYXGIEkWrNyZyZf0drZPMfINp/KFMUiSBSu3prCc7sagmPiWU5hpDJJkwcq9j/ia7s5iKQa+pgufGIMkWbDCYQJf0MtrsRRx8529kiQLVrhM4zP6mJkibC6nee2VJGWfp7zS1Z2hVDUGRdJMurDIGCTJghVGJzOcmsagyPmYbiw1BkmyYIVVW0axlzEoUsbTjeXGIEnB8JLt0u2qOjsToEh5i9OsV5JkwQq7SZzstSyKjJfpzhpjkCQLVvjNpBOzjUERMJCz2GAMkmTBiobZHM+7xqCQu5dL2WIMkmTBio7ldOFpY1BobeVabqTAICQpaC6aWTbbeB7oZBAKoTWczbPGIEkWrGh6i4WcYZIKmUV04T1jkKTccB2szOjCUGoZg0JjCj1YaAySlCteg5UZr9GB+cagkBhFR+uVJFmw4mAa7fjYGBQCD9HTVa8kyYIVF4vpxEvGoJzaws+4hq0GIUm55aXZmbSZZ9nAKdZW5chSejPYGCQp97zIPfNOYRANjEGBG8u5LDEGSQoD51oy702OZbwxKGAPcar1SpIsWHG2gJN41BgUmI1cwTVsNghJCguvwcqOrbzEEk43XwVgNl141RgkKUy8BiubjmUoBxmDsuoVLmaFMUhSuHiKMJsmcALvGIOyJp8/0tN6JUnh4yms7FrLANZzsjkrCxZwFk9SYBCSFD6eIgzCcTxFM2NQRj3H1SwzBkkKJ08RBuEjjuYhY1DGbOAm+lqvJCm8nMEKTl8eYi9jUJmN5yJmGYMkhZkzWMEZxpG8bQwqk3zupYP1SpLCzouvg7SaJ1nBqaauUppPH/7HNoOQpLDzFGHw2vIUhxiD0vYs17LSGCQpCjxFGLzxtOEOZyGUlq+5jPOtV5IUFc5g5UobHuFYY1AKChjIzd4zKElR4gxWrkyhHTexziBUgjl05VLrlSRFizNYudWUBznNGFSErdzPb63hkmTBUvojcAl3Us8gtIcpXMkEY5CkKHLBgDDsRvuzD20MQjvZwO1cwkKDkKRocgYrLM7ibg40BgEwiuv5whgkKbq8yD0snucwfsMag0i8WfTjDOuVJEWbpwjDYytjeZKaHOW8YmKt5W9cyFSDkKSoc1cePm25mxONIXHyeYpf8rVBSJIFS9kalXP4l1dkJcpb3MQUY5CkuPAUYTjN4CG2cgIVjCIBFnADv+Arg5Ck+HAGK8yacAfnOEaxtpq/cxcbDUKSpCC1ZjAF/sTyZxMPso8fcUmScqM971hHYvazjcE08aMtSVIu5dGHKdaS2JSrp2nuh1qSpHCUrJ5MsJ7EYOaqhR9mSZLCVrLGW1MiXK4O80MsSVI4S1Yv3rWuRO6C9sc41A+vJCVnZ61oOpqbuMB1siJhLY/xLxYYhCRZsBQFTbmJy6luECH2Df/hfpYbhCRZsBQltbicX7K/QYTQ59zPw6w3CEmSoqgSl/KJ1zmF6Cef1+jp4YskJZe7gPiMZHd+yumUM4ocW0V/7uMzg5AkC5biYn+u4ic0MIgcmchDPM1ag5AkKW4qcwFvke+JukB/1vAobf3wSZK+4wxWXDXiQq7xaXeBmMhDPMMag5AkWbCSoBxduJzeVDGKLFlEf57gc4OQJFmwkqY2vTmXbi5KmlGreIkhjGSrUUiSLFjJVY++XMqJjniZbWQMQxjq+laSJAuWvnMQfTjXmlVKG3idIbzAaqOQJFmwtLtG9KUvJ7pmVspW8zLDGOmslSTJgqXi1eNUetKL2kZRjLm8xghGs8koJEkWLKWqEifRg24cahS72Mz7vMIIZhqFJMmCpdLal450picNE5/EHMYwhtGs8kMhSbJgKRPKcTSncBIdE3ji8Ave4W1eZ6EfA0mSBUvZUJ4jOIlOnBj75xoW8Cnv8A5vs8hhlyRZsBSM/TiG9nTgmJitB7+aabzHWD7gWwdZkmTBUm5U4UiO4iiO4vAIV61vmbT953MKHFRJkgVLYVGBFhxJK1rRksYRWEtrIzOZwXQ+YZLXV0mSLFgKv2q0oCXNaUYzmlI3JK+qgIXMZjaz+YzpzGWbAyVJsmApqurRjCY0ohEH0YgD2Dugv3cri5nPfBaygC/5gjlsdDAkSRYsxVNV9qYhDbb/917UoS51qEMdqpfqz1vByu0/K1jGEpbyNV+xlKXOUUmSLFhSHnWoSA2qUoWaVACgFuV3/PpGNgCwnk2sZisr2cJaY5MkSZIkKaH+P/w02GLpYdaqAAAAJXRFWHRkYXRlOmNyZWF0ZQAyMDE5LTA3LTI3VDA3OjM1OjIwKzAwOjAw93RSlgAAACV0RVh0ZGF0ZTptb2RpZnkAMjAxOS0wNy0yN1QwNzozNToyMCswMDowMIYp6ioAAAAASUVORK5CYII=;align=center;" parent="WbtZ3voP-l4ZFSo2hSSj-248" vertex="1">
          <mxGeometry x="323.1444759206799" y="171.52394775036285" width="22.060957910014515" height="36.400580551523944" as="geometry"/>
        </mxCell>
      </root>
    </mxGraphModel>
  </diagram>
</mxfile>
